<svg width="1440" height="3689" viewBox="0 0 1440 3689" fill="none" xmlns="http://www.w3.org/2000/svg">
<g opacity="0.1">
<rect width="1440" height="3689" fill="#FFF3F7"/>
<path d="M1224.25 926.174L1185.16 964.108L1184.99 994.587L1219.8 1029.02L1285.92 1025.49L1290.16 960.743L1255.35 926.306L1224.25 926.174Z" fill="#E30053"/>
<path d="M368.952 1745.38L321.264 1869.36L194.849 1822.34L66.9177 1544.46L114.606 1420.48L241.02 1467.5L368.952 1745.38Z" fill="#A9003E"/>
<path d="M1131.14 2111.03L1009.68 2205.8L1009.96 2053.67L1207.78 1652.45L1329.24 1557.68L1328.96 1709.82L1131.14 2111.03Z" fill="#A9003E"/>
<path d="M340.511 2646.11L30.7127 2558.85L77.9303 2435.67L505.773 2214.95L749.926 2249.59L791.962 2363.8L340.511 2646.11Z" fill="#BC0045"/>
<path d="M951.907 3368.44L1393.77 3249.82L1327.59 3076.31L720.279 2761.17L372.339 2806.75L311.509 2966.54L951.907 3368.44Z" fill="#D5004E"/>
<path d="M191.505 614.515L125.201 577.004L83.3821 587.962L48.9637 646.378L78.0436 732.062L168.312 713.897L202.73 655.482L191.505 614.515Z" fill="#E30053"/>
<path d="M400.432 268.702L379.746 287.956L379.324 303.758L396.991 321.983L431.313 320.854L434.226 287.325L416.559 269.1L400.432 268.702Z" fill="#E30053"/>
<path d="M919.636 761.603L934.206 737.566L930.231 722.246L908.176 709.41L875.458 719.634L881.95 752.677L904.006 765.513L919.636 761.603Z" fill="#E30053"/>
</g>
</svg>
