<svg width="48" height="49" viewBox="0 0 48 49" fill="none" xmlns="http://www.w3.org/2000/svg">
<path fill-rule="evenodd" clip-rule="evenodd" d="M24 4.7085C12.95 4.7085 4.00001 13.6585 4.00001 24.7085C4.00001 33.5585 9.72501 41.0335 17.675 43.6835C18.675 43.8585 19.05 43.2585 19.05 42.7335C19.05 42.2585 19.025 40.6835 19.025 39.0085C14 39.9335 12.7 37.7835 12.3 36.6585C12.075 36.0835 11.1 34.3085 10.25 33.8335C9.55001 33.4585 8.55001 32.5335 10.225 32.5085C11.8 32.4835 12.925 33.9585 13.3 34.5585C15.1 37.5835 17.975 36.7335 19.125 36.2085C19.3 34.9085 19.825 34.0335 20.4 33.5335C15.95 33.0335 11.3 31.3085 11.3 23.6585C11.3 21.4835 12.075 19.6835 13.35 18.2835C13.15 17.7835 12.45 15.7335 13.55 12.9835C13.55 12.9835 15.225 12.4585 19.05 15.0335C20.65 14.5835 22.35 14.3585 24.05 14.3585C25.75 14.3585 27.45 14.5835 29.05 15.0335C32.875 12.4335 34.55 12.9835 34.55 12.9835C35.65 15.7335 34.95 17.7835 34.75 18.2835C36.025 19.6835 36.8 21.4585 36.8 23.6585C36.8 31.3335 32.125 33.0335 27.675 33.5335C28.4 34.1585 29.025 35.3585 29.025 37.2335C29.025 39.9085 29 42.0585 29 42.7335C29 43.2585 29.375 43.8835 30.375 43.6835C34.3454 42.3431 37.7954 39.7914 40.2396 36.3876C42.6838 32.9837 43.9989 28.899 44 24.7085C44 13.6585 35.05 4.7085 24 4.7085Z" fill="#FFF3F7"/>
</svg>
