<svg width="68" height="59" viewBox="0 0 68 59" fill="none" xmlns="http://www.w3.org/2000/svg">
<g clip-path="url(#clip0_2454_146)">
<path d="M22.3396 1.5622C24.1518 3.60332 25.8811 5.52556 27.5682 7.48495C27.7705 7.71937 27.8279 8.16352 27.8118 8.50476C27.5341 14.3698 27.6408 20.2841 27.3198 26.147C26.4042 26.9639 25.9724 27.4165 25.4291 27.9193C23.6153 29.6655 22.8068 30.5808 20.8155 32.5247C19.8418 31.4238 18.7163 29.9463 18.1351 29.1327C17.5236 28.2773 15.5619 25.4743 15.5619 25.4743C15.5619 25.4743 15.4964 24.2454 15.5967 22.2508C15.832 17.57 15.9983 12.956 16.2027 8.30768C16.2783 6.80375 16.2851 7.16889 17.0139 6.49454C18.7789 4.9133 20.4972 3.277 22.3385 1.56421L22.3396 1.5622Z" fill="#A67992"/>
<path d="M6.5509 10.7227C9.48318 12.1711 12.2698 13.5249 15.0263 14.9389C15.3566 15.1079 15.6207 15.575 15.7567 15.9611C18.094 22.5969 20.88 29.114 23.1682 35.7669C22.5202 37.0866 22.2451 37.7838 21.8687 38.587C20.643 41.3435 20.1584 42.7242 18.8247 45.7803C17.2472 44.9974 15.3314 43.8649 14.3193 43.224C13.2547 42.5502 9.81281 40.3236 9.81281 40.3236C9.81281 40.3236 9.18583 38.9889 8.39747 36.7296C6.54737 31.4275 4.6508 26.2307 2.78106 20.9786C2.18663 19.2751 2.35898 19.6773 2.86373 18.6001C4.10979 16.0487 5.27916 13.4572 6.55058 10.7254L6.5509 10.7227Z" fill="#885C75"/>
<path d="M19.5695 13.7188C21.4917 12.8804 23.3073 12.0743 25.1402 11.3078C25.3596 11.2158 25.6989 11.2789 25.9454 11.3714C30.1825 12.9608 34.5459 14.2817 38.7712 15.9023C39.1557 16.7629 39.3865 17.1848 39.6279 17.6998C40.4834 19.435 40.9652 20.2408 41.9242 22.1522C40.8882 22.6017 39.5405 23.0728 38.8074 23.3041C38.0366 23.5476 35.5204 24.3148 35.5204 24.3148C35.5204 24.3148 34.6036 24.0719 33.164 23.5271C29.7857 22.2486 26.4401 21.0362 23.0784 19.7879C21.9929 19.3772 22.2624 19.4585 21.9386 18.7678C21.1926 17.1071 20.3953 15.4675 19.5707 13.7201L19.5695 13.7188Z" fill="#774F66"/>
<path d="M42.7636 1.92484C43.8298 4.12304 44.8535 6.19871 45.8317 8.29614C45.9492 8.54719 45.8909 8.9438 45.7943 9.2339C44.1323 14.2198 42.7896 19.3414 41.0908 24.315C40.1038 24.7967 39.622 25.0819 39.0318 25.3833C37.0456 26.4479 36.127 27.0403 33.9397 28.2322C33.3678 27.0474 32.7565 25.5014 32.453 24.6595C32.1337 23.7741 31.1235 20.8832 31.1235 20.8832C31.1235 20.8832 31.3651 19.8085 31.9354 18.1143C33.2735 14.1384 34.5361 10.2034 35.8397 6.24802C36.2697 4.97058 36.187 5.28685 36.9785 4.88261C38.8828 3.94837 40.7602 2.95537 42.7621 1.9263L42.7636 1.92484Z" fill="#AA6B8F"/>
<path d="M45.8347 10.5498C47.8323 11.7821 49.7323 12.9371 51.6066 14.1331C51.8313 14.2761 51.9885 14.6277 52.0597 14.9127C53.2828 19.8115 54.8347 24.6557 56.0216 29.5634C55.4697 30.4628 55.2262 30.9424 54.9032 31.491C53.8418 33.378 53.4025 34.3319 52.2438 36.4257C51.1694 35.7601 49.8767 34.8219 49.1967 34.2958C48.4814 33.7427 46.172 31.9199 46.172 31.9199C46.172 31.9199 45.8139 30.9241 45.4028 29.2567C44.4379 25.3436 43.4327 21.5026 42.4504 17.624C42.1404 16.3668 42.2365 16.6658 42.6697 15.9301C43.7318 14.1909 44.7419 12.4181 45.8343 10.5517L45.8347 10.5498Z" fill="#B189A0"/>
<path d="M64.8085 4.23776C65.4385 6.87502 66.0517 9.3693 66.6105 11.8763C66.6777 12.1765 66.5198 12.5924 66.3456 12.8837C63.3525 17.8899 60.6728 23.1195 57.6427 28.1036C56.4578 28.3896 55.8674 28.5836 55.1558 28.7692C52.7486 29.448 51.6114 29.8705 48.956 30.6393C48.6194 29.2185 48.3265 27.3968 48.199 26.4118C48.0646 25.376 47.6608 22.0014 47.6608 22.0014C47.6608 22.0014 48.1797 20.8944 49.2027 19.1947C51.6035 15.2056 53.9126 11.2428 56.2711 7.26775C57.0425 5.9861 56.8773 6.30911 57.8317 6.06022C60.1188 5.50299 62.3909 4.87565 64.8066 4.239L64.8085 4.23776Z" fill="#A57E94"/>
<path d="M23.549 53.6508L23.549 53.6508L23.5486 53.6507C22.5183 53.415 21.0666 53.083 19.1833 52.0255C17.2969 50.9662 14.9651 49.1717 12.2004 45.9975L12.2004 45.9974C8.75741 42.0457 7.97329 38.5468 7.33503 35.6971L7.04228 35.7627L7.33503 35.6971C7.32968 35.6732 7.32433 35.6493 7.31899 35.6255C6.85262 33.5427 6.44851 31.7379 4.94385 30.6624C4.82599 30.5261 4.71328 30.2889 4.61756 29.9533C4.51923 29.6085 4.44797 29.1937 4.39828 28.7527C4.31317 27.9973 4.2939 27.1887 4.30152 26.5715H63.6984C63.7063 27.1886 63.6872 27.9972 63.6021 28.7527C63.5524 29.1936 63.4811 29.6085 63.3827 29.9532C63.2868 30.2888 63.174 30.5261 63.0559 30.6623C61.5526 31.7368 61.1487 33.5385 60.6821 35.6195L60.6647 35.697L60.6647 35.6971C60.0264 38.5467 59.2414 42.0448 55.7993 45.9975C53.0346 49.1713 50.7026 50.9658 48.8161 52.0252C46.9325 53.0829 45.4806 53.4151 44.4508 53.6508L44.4507 53.6508L44.5176 53.9433L44.4507 53.6508L44.4038 53.6616C43.7626 53.8082 43.1807 53.9413 42.7454 54.2301C42.3541 54.4896 42.0343 54.8516 41.7293 55.1968L41.7077 55.2212L41.7075 55.2215C41.1811 55.8184 40.5864 56.4915 39.4712 57.0263C38.3509 57.5635 36.681 57.9715 33.9999 57.9715C31.3187 57.9715 29.6485 57.5637 28.5282 57.0266C27.4129 56.492 26.8181 55.8188 26.2924 55.2216L26.2887 55.2175C25.9782 54.8643 25.6531 54.4946 25.2543 54.2301C24.819 53.9413 24.2372 53.8082 23.5959 53.6616L23.549 53.6508Z" fill="#E478E4" stroke="#BA61BA" stroke-width="0.6"/>
<path d="M26.2212 55.4572L26.222 55.4588C26.2237 55.4624 26.2268 55.4688 26.2315 55.478C26.2409 55.4963 26.2565 55.5254 26.2792 55.5639C26.3247 55.6408 26.3986 55.7549 26.5082 55.8941C26.7273 56.1721 27.0898 56.5512 27.6546 56.9335C28.7816 57.6964 30.7338 58.4852 33.9991 58.4852C37.2645 58.4852 39.2167 57.6964 40.3437 56.9335C40.9085 56.5512 41.271 56.1721 41.49 55.8941C41.5997 55.7549 41.6736 55.6408 41.7191 55.5639C41.7418 55.5254 41.7574 55.4963 41.7668 55.478C41.7691 55.4734 41.7711 55.4695 41.7727 55.4662C41.7742 55.4631 41.7754 55.4606 41.7763 55.4588L41.7771 55.4572C41.7772 55.457 41.7772 55.4569 41.7773 55.4567M26.2212 55.4572L42.0514 55.5787C41.7771 55.4572 41.7772 55.4569 41.7773 55.4567M26.2212 55.4572C26.2211 55.457 26.2211 55.4569 26.221 55.4567C26.221 55.4567 26.221 55.4567 26.221 55.4567C26.2209 55.4566 26.2209 55.4565 26.2208 55.4564L26.2206 55.4559C26.2206 55.4559 26.2206 55.4558 26.2206 55.4558C26.213 55.4388 26.2038 55.4226 26.1932 55.4074C25.4012 54.2694 25.3 52.7528 25.3 51.1254V43.208C25.3 39.2781 28.3757 36.0852 32.1053 36.0852H35.8947C39.6251 36.0852 42.7 39.279 42.7 43.208V51.1254C42.7 52.7045 42.5706 54.2633 41.8201 55.3876M26.2212 55.4572L41.8201 55.3876M41.7773 55.4567C41.7885 55.4315 41.803 55.4083 41.8201 55.3876M41.7773 55.4567L41.8201 55.3876" fill="#D35ED3" stroke="#B851B8" stroke-width="0.6" stroke-linecap="round" stroke-linejoin="round"/>
<path d="M3.30829 26.5715H64.6917C64.6945 26.666 64.6972 26.7814 64.6987 26.9133C64.7031 27.2973 64.6977 27.8184 64.6588 28.3693C64.6197 28.9218 64.5476 29.4952 64.4215 29.987C64.3085 30.4275 64.1615 30.7648 63.987 30.9715H4.01302C3.83853 30.7648 3.69148 30.4275 3.57853 29.987C3.45243 29.4952 3.38028 28.9218 3.34123 28.3693C3.30231 27.8184 3.29689 27.2973 3.30128 26.9133C3.30279 26.7814 3.30545 26.666 3.30829 26.5715Z" fill="#D35ED3" stroke="#B851B8" stroke-width="0.6" stroke-linecap="round" stroke-linejoin="round"/>
<path d="M1.69969 18.5715H66.3003C67.0652 18.5715 67.7 19.2123 67.7 20.0211V24.5218C67.7 25.3307 67.0652 25.9715 66.3003 25.9715H1.69969C0.934797 25.9715 0.3 25.3307 0.3 24.5218V20.0211C0.3 19.2123 0.934797 18.5715 1.69969 18.5715Z" fill="#E478E4" stroke="#BA61BA" stroke-width="0.6"/>
<path d="M43.6805 31.3203C43.67 36.7064 39.3257 41.0691 33.9814 41.0691C28.6372 41.0691 24.3098 36.7064 24.3203 31.3203C24.3308 25.9342 28.6751 21.5715 34.0193 21.5715C39.3636 21.5715 43.6909 25.9342 43.6805 31.3203Z" fill="#F3FF70" stroke="#FDFFCC" stroke-width="0.6"/>
<mask id="mask0_2454_146" style="mask-type:luminance" maskUnits="userSpaceOnUse" x="23" y="21" width="21" height="21">
<path d="M33.8297 41.1071C39.259 41.1071 43.6604 36.6667 43.6604 31.1893C43.6604 25.7118 39.259 21.2715 33.8297 21.2715C28.4004 21.2715 23.999 25.7118 23.999 31.1893C23.999 36.6667 28.4004 41.1071 33.8297 41.1071Z" fill="white"/>
</mask>
<g mask="url(#mask0_2454_146)">
<path d="M23.8691 33.8724L38.1234 21.4753" stroke="#FDFFCC" stroke-width="2" stroke-miterlimit="10"/>
<path d="M27.0562 38.0753L41.8017 25.3759" stroke="#FDFFCC" stroke-width="6" stroke-miterlimit="10"/>
</g>
</g>
<defs>
<clipPath id="clip0_2454_146">
<rect width="68" height="58" fill="white" transform="translate(0 0.785156)"/>
</clipPath>
</defs>
</svg>
