<svg width="68" height="59" viewBox="0 0 68 59" fill="none" xmlns="http://www.w3.org/2000/svg">
<g clip-path="url(#clip0_2454_29)">
<path d="M0.923828 13.0106C2.6615 11.9391 4.43165 10.8438 6.20532 9.75372C8.4066 8.40063 10.6184 7.06337 12.8074 5.69093C13.3483 5.35133 13.8339 5.25808 14.4643 5.45691C17.4646 6.40354 20.4869 7.27804 23.4802 8.24491C23.9464 8.39535 24.4346 8.81764 24.684 9.24697C25.6086 10.8367 26.4638 12.4687 27.2821 14.1156C27.4665 14.486 27.535 15.0245 27.4209 15.416C26.3988 18.9201 25.3399 22.4128 24.2449 25.8941C24.1211 26.2873 23.7769 26.7079 23.4187 26.912C21.7697 27.8551 20.09 28.7481 18.3936 29.6023C18.0503 29.7747 17.5471 29.8284 17.1801 29.7211C14.0112 28.7947 10.8537 27.8287 7.70328 26.8407C7.39157 26.743 7.02981 26.4721 6.89635 26.1853C4.89263 21.892 2.92228 17.5828 0.947536 13.2763C0.923828 13.2253 0.935243 13.1576 0.923828 13.0098V13.0106Z" fill="#6DA1C1"/>
<path d="M41.8367 22.5888C40.1605 22.2703 38.451 21.9483 36.7423 21.621C34.6209 21.2146 32.503 20.7932 30.3781 20.4052C29.853 20.3093 29.5001 20.0929 29.2226 19.6143C27.9011 17.3357 26.5243 15.0896 25.2187 12.8031C25.015 12.4467 24.9509 11.911 25.0378 11.5045C25.36 10.001 25.749 8.50976 26.1696 7.02998C26.2644 6.69742 26.5243 6.32616 26.815 6.14844C29.4158 4.55957 32.0341 2.99885 34.6683 1.46541C34.9651 1.29209 35.4146 1.22699 35.7509 1.30265C37.2998 1.65104 38.8399 2.04606 40.3686 2.47627C40.6777 2.56336 41.0193 2.8141 41.1852 3.08771C42.6226 5.44902 44.031 7.82793 45.4218 10.2165C45.5597 10.4532 45.6308 10.8244 45.5518 11.0769C44.3769 14.8608 43.1714 18.6351 41.9711 22.412C41.957 22.4568 41.9122 22.492 41.8358 22.5905L41.8367 22.5888Z" fill="#8DB1C7"/>
<path d="M64.2029 26.7023C62.51 26.917 60.7846 27.1378 59.0583 27.3542C56.9159 27.6226 54.7708 27.8751 52.6301 28.1619C52.1006 28.2331 51.6994 28.1364 51.2876 27.766C49.3304 26.0064 47.3293 24.2944 45.3835 22.5216C45.0806 22.2454 44.8541 21.7554 44.8119 21.3419C44.6565 19.8119 44.5678 18.2732 44.5125 16.7354C44.5002 16.3896 44.6337 15.9559 44.8558 15.6972C46.842 13.3834 48.8536 11.0899 50.8872 8.81828C51.1163 8.56226 51.5238 8.36079 51.8671 8.32912C53.4485 8.1822 55.0342 8.08278 56.6209 8.02032C56.9413 8.008 57.3435 8.14085 57.5858 8.34936C59.6791 10.152 61.7505 11.9802 63.8077 13.8233C64.0114 14.0054 64.1932 14.3371 64.1958 14.6019C64.2415 18.5644 64.2547 22.5278 64.274 26.4903C64.274 26.5378 64.2424 26.5844 64.2002 26.7014L64.2029 26.7023Z" fill="#6EA4C6"/>
<path d="M36.479 5.11719C37.3895 6.56354 38.3185 8.03628 39.244 9.51254C40.3933 11.3442 41.5287 13.1856 42.693 15.0067C42.981 15.4572 43.0635 15.8628 42.9028 16.3924C42.1398 18.9138 41.4373 21.4546 40.6568 23.9708C40.5347 24.3631 40.1879 24.7749 39.8314 24.9887C38.5134 25.7769 37.1595 26.508 35.7915 27.2083C35.4841 27.3658 35.0355 27.4283 34.7079 27.3359C31.7752 26.5115 28.8504 25.6555 25.9353 24.7696C25.606 24.6693 25.2522 24.3851 25.0783 24.0869C24.2767 22.7136 23.5163 21.3147 22.7875 19.9009C22.64 19.615 22.5908 19.1936 22.6777 18.8857C23.4223 16.2226 24.2003 13.5692 24.9967 10.9211C25.0757 10.6589 25.2987 10.3536 25.5367 10.2392C29.1016 8.52191 32.6796 6.83275 36.2551 5.14006C36.2972 5.11983 36.3534 5.12862 36.4772 5.11807L36.479 5.11719Z" fill="#8BCBEA"/>
<path d="M13.6128 28.9405C12.9516 27.6182 12.2764 26.2703 11.6046 24.9208C10.7705 23.2457 9.94951 21.5644 9.10043 19.8964C8.89058 19.4838 8.85458 19.1301 9.04073 18.6955C9.92493 16.6271 10.7564 14.5359 11.6547 12.4737C11.7943 12.1526 12.1324 11.8368 12.459 11.6916C13.6707 11.1541 14.9079 10.6684 16.1547 10.2109C16.4348 10.108 16.8291 10.1001 17.1048 10.2118C19.573 11.2095 22.0315 12.2335 24.4787 13.2822C24.7553 13.4001 25.0362 13.679 25.1609 13.95C25.7343 15.1993 26.2699 16.4661 26.7765 17.7427C26.8793 18.0005 26.8845 18.3638 26.7827 18.6181C25.902 20.8087 24.995 22.9888 24.0713 25.1609C23.9799 25.3756 23.7595 25.6132 23.5435 25.6862C20.3035 26.7876 17.0547 27.8627 13.8068 28.9422C13.7682 28.9554 13.7199 28.9422 13.6119 28.9387L13.6128 28.9405Z" fill="#77ACC8"/>
<path d="M35.1996 12.4505C36.6414 12.037 38.1095 11.6147 39.5802 11.1951C41.4057 10.6751 43.2364 10.1675 45.0549 9.63257C45.5045 9.49973 45.8794 9.52788 46.3219 9.78653C48.4284 11.0165 50.562 12.1998 52.6606 13.4429C52.9881 13.6364 53.2937 14.0226 53.421 14.3684C53.8925 15.6485 54.3069 16.9453 54.6924 18.2456C54.7793 18.5377 54.7565 18.9248 54.6178 19.1755C53.378 21.4145 52.1109 23.6386 50.8202 25.8486C50.6744 26.0975 50.3601 26.3245 50.0659 26.3984C48.7076 26.7389 47.3352 27.0389 45.954 27.309C45.6748 27.3635 45.292 27.3046 45.0338 27.1603C42.7992 25.9119 40.5777 24.6398 38.365 23.3518C38.1464 23.2242 37.9137 22.9673 37.8531 22.743C36.9461 19.3787 36.0663 16.0101 35.1829 12.6414C35.1724 12.6018 35.19 12.5569 35.2014 12.4514L35.1996 12.4505Z" fill="#7EC0DA"/>
<path d="M23.549 53.6508L23.549 53.6508L23.5486 53.6507C22.5183 53.415 21.0666 53.083 19.1833 52.0255C17.2969 50.9662 14.9651 49.1717 12.2004 45.9975L12.2004 45.9974C8.75741 42.0457 7.97329 38.5468 7.33503 35.6971L7.04228 35.7627L7.33503 35.6971C7.32968 35.6732 7.32433 35.6493 7.319 35.6255C6.85262 33.5427 6.44851 31.7379 4.94385 30.6624C4.82599 30.5261 4.71328 30.2889 4.61756 29.9533C4.51923 29.6085 4.44797 29.1937 4.39828 28.7527C4.31317 27.9973 4.2939 27.1887 4.30152 26.5715H63.6984C63.7063 27.1886 63.6872 27.9972 63.6021 28.7527C63.5524 29.1936 63.4811 29.6085 63.3827 29.9532C63.2868 30.2888 63.174 30.5261 63.0559 30.6623C61.5526 31.7368 61.1487 33.5385 60.6821 35.6195L60.6647 35.697L60.6647 35.6971C60.0264 38.5467 59.2415 42.0448 55.7993 45.9975C53.0346 49.1713 50.7026 50.9658 48.8161 52.0252C46.9325 53.0829 45.4806 53.4151 44.4508 53.6508L44.4507 53.6508L44.5176 53.9433L44.4507 53.6508L44.4038 53.6616C43.7626 53.8082 43.1807 53.9413 42.7454 54.2301C42.3541 54.4896 42.0342 54.8516 41.7292 55.1969L41.7077 55.2212L41.7075 55.2215C41.1811 55.8184 40.5864 56.4915 39.4712 57.0263C38.3509 57.5635 36.681 57.9715 33.9999 57.9715C31.3187 57.9715 29.6485 57.5637 28.5282 57.0266C27.4129 56.492 26.8181 55.8188 26.2924 55.2216L26.2887 55.2175C25.9782 54.8643 25.6532 54.4946 25.2543 54.2301C24.819 53.9413 24.2372 53.8082 23.5959 53.6616L23.549 53.6508Z" fill="#FB9E18" stroke="#E18B20" stroke-width="0.6"/>
<path d="M26.2212 55.4572L26.222 55.4588C26.2237 55.4624 26.2268 55.4688 26.2315 55.478C26.2409 55.4963 26.2565 55.5254 26.2792 55.5639C26.3247 55.6408 26.3986 55.7549 26.5082 55.8941C26.7273 56.1721 27.0898 56.5512 27.6546 56.9335C28.7816 57.6964 30.7338 58.4852 33.9991 58.4852C37.2645 58.4852 39.2167 57.6964 40.3437 56.9335C40.9085 56.5512 41.271 56.1721 41.49 55.8941C41.5997 55.7549 41.6736 55.6408 41.7191 55.5639C41.7418 55.5254 41.7574 55.4963 41.7668 55.478C41.7691 55.4734 41.7711 55.4695 41.7727 55.4662C41.7742 55.4631 41.7754 55.4606 41.7763 55.4588L41.7771 55.4572C41.7772 55.457 41.7772 55.4569 41.7773 55.4567M26.2212 55.4572L42.0514 55.5787C41.7771 55.4572 41.7772 55.4569 41.7773 55.4567M26.2212 55.4572C26.2211 55.457 26.2211 55.4569 26.221 55.4567C26.221 55.4567 26.221 55.4567 26.221 55.4567C26.2209 55.4566 26.2209 55.4565 26.2208 55.4564L26.2206 55.4559C26.2206 55.4559 26.2206 55.4558 26.2206 55.4558C26.213 55.4388 26.2038 55.4226 26.1932 55.4074C25.4012 54.2694 25.3 52.7528 25.3 51.1254V43.208C25.3 39.2781 28.3757 36.0852 32.1053 36.0852H35.8947C39.6251 36.0852 42.7 39.279 42.7 43.208V51.1254C42.7 52.7045 42.5706 54.2633 41.8201 55.3876M26.2212 55.4572L41.8201 55.3876M41.7773 55.4567C41.7885 55.4315 41.803 55.4083 41.8201 55.3876M41.7773 55.4567L41.8201 55.3876" fill="#D38513" stroke="#B57211" stroke-width="0.6" stroke-linecap="round" stroke-linejoin="round"/>
<path d="M3.30829 26.5715H64.6917C64.6945 26.666 64.6972 26.7814 64.6987 26.9133C64.7031 27.2973 64.6977 27.8184 64.6588 28.3693C64.6197 28.9218 64.5476 29.4952 64.4215 29.987C64.3085 30.4275 64.1615 30.7648 63.987 30.9715H4.01302C3.83853 30.7648 3.69148 30.4275 3.57853 29.987C3.45243 29.4952 3.38028 28.9218 3.34123 28.3693C3.30231 27.8184 3.29689 27.2973 3.30128 26.9133C3.30279 26.7814 3.30545 26.666 3.30829 26.5715Z" fill="#D38513" stroke="#B57211" stroke-width="0.6" stroke-linecap="round" stroke-linejoin="round"/>
<path d="M1.69969 18.5715H66.3003C67.0652 18.5715 67.7 19.2123 67.7 20.0211V24.5218C67.7 25.3307 67.0652 25.9715 66.3003 25.9715H1.69969C0.934797 25.9715 0.3 25.3307 0.3 24.5218V20.0211C0.3 19.2123 0.934797 18.5715 1.69969 18.5715Z" fill="#FB9E18" stroke="#E18B20" stroke-width="0.6"/>
<path d="M43.6805 31.3203C43.67 36.7064 39.3257 41.0691 33.9814 41.0691C28.6372 41.0691 24.3098 36.7064 24.3203 31.3203C24.3308 25.9342 28.6751 21.5715 34.0193 21.5715C39.3636 21.5715 43.6909 25.9342 43.6805 31.3203Z" fill="#F3FF70" stroke="#FDFFCC" stroke-width="0.6"/>
<mask id="mask0_2454_29" style="mask-type:luminance" maskUnits="userSpaceOnUse" x="23" y="21" width="21" height="21">
<path d="M33.8297 41.1071C39.259 41.1071 43.6604 36.6667 43.6604 31.1893C43.6604 25.7118 39.259 21.2715 33.8297 21.2715C28.4004 21.2715 23.999 25.7118 23.999 31.1893C23.999 36.6667 28.4004 41.1071 33.8297 41.1071Z" fill="white"/>
</mask>
<g mask="url(#mask0_2454_29)">
<path d="M23.8691 33.8724L38.1234 21.4753" stroke="#FDFFCC" stroke-width="2" stroke-miterlimit="10"/>
<path d="M27.0562 38.0753L41.8017 25.3759" stroke="#FDFFCC" stroke-width="6" stroke-miterlimit="10"/>
</g>
</g>
<defs>
<clipPath id="clip0_2454_29">
<rect width="68" height="58" fill="white" transform="translate(0 0.785156)"/>
</clipPath>
</defs>
</svg>
