<svg width="68" height="59" viewBox="0 0 68 59" fill="none" xmlns="http://www.w3.org/2000/svg">
<g clip-path="url(#clip0_2454_51)">
<path d="M25.1974 5.32113C26.6867 7.54401 28.1112 9.64043 29.4898 11.7673C29.6552 12.0218 29.6521 12.4608 29.5911 12.7901C28.5433 18.4497 27.8622 24.2082 26.7726 29.86C25.7749 30.5319 25.2955 30.9142 24.7011 31.3305C22.7078 32.7858 21.8011 33.5675 19.6092 35.1914C18.8095 33.9929 17.9123 32.4086 17.4558 31.5413C16.9754 30.6293 15.442 27.6466 15.442 27.6466C15.442 27.6466 15.5414 26.4444 15.9034 24.5204C16.753 20.0054 17.5266 15.546 18.3418 11.0585C18.6148 9.60783 18.5731 9.96338 19.3703 9.4051C21.2944 8.10348 23.1804 6.74219 25.196 5.32294L25.1974 5.32113Z" fill="#A67992"/>
<path d="M6.33483 10.1967C8.99771 10.4459 11.5217 10.6654 14.0403 10.9398C14.342 10.9723 14.6802 11.2519 14.8969 11.507C18.6215 15.892 22.6541 20.0553 26.3462 24.4677C26.237 25.6651 26.2306 26.278 26.1779 27.0015C26.0474 29.465 26.0808 30.6611 25.9554 33.385C24.5218 33.2481 22.7276 32.9432 21.7672 32.7494C20.7572 32.546 17.4776 31.8513 17.4776 31.8513C17.4776 31.8513 16.6087 31.0153 15.3463 29.5201C12.3836 26.0113 9.41615 22.5964 6.45309 19.1316C5.50119 18.0042 5.75038 18.2611 5.82104 17.2908C6.02703 14.9779 6.16275 12.6569 6.33538 10.1989L6.33483 10.1967Z" fill="#885C75"/>
<path d="M56.3996 2.65964C56.8153 6.05742 57.2301 9.27331 57.5749 12.4979C57.6167 12.884 57.3598 13.3853 57.1002 13.7279C52.639 19.6154 48.539 25.8257 44.0347 31.6804C42.5091 31.8807 41.7417 32.0451 40.8235 32.1827C37.7103 32.7125 36.2252 33.0905 32.7881 33.6999C32.5677 31.8698 32.4589 29.5419 32.4387 28.2873C32.4171 26.968 32.3896 22.6742 32.3896 22.6742C32.3896 22.6742 33.1968 21.3532 34.72 19.3551C38.2946 14.666 41.7504 9.99738 45.2699 5.32016C46.4184 3.81356 46.1656 4.19719 47.397 4.01262C50.3426 3.61961 53.2792 3.13649 56.397 2.66095L56.3996 2.65964Z" fill="#774F66"/>
<path d="M28.1744 3.92804C30.7166 4.85031 33.1304 5.70818 35.525 6.61836C35.812 6.72703 36.0717 7.08677 36.2188 7.39163C38.7461 12.6314 41.6315 17.7327 44.12 22.9911C43.7081 24.1349 43.5458 24.733 43.3099 25.4276C42.5545 27.8049 42.2824 28.9839 41.4658 31.6174C40.0978 31.1181 38.4198 30.3626 37.5294 29.9284C36.593 29.472 33.5607 27.9566 33.5607 27.9566C33.5607 27.9566 32.9235 26.9171 32.0691 25.1324C30.064 20.9441 28.0303 16.8466 26.0136 12.7012C25.3694 11.3555 25.5478 11.6703 25.8642 10.7389C26.655 8.5282 27.3792 6.29161 28.1743 3.93031L28.1744 3.92804Z" fill="#AA6B8F"/>
<path d="M66.148 10.9606C66.0296 13.322 65.9321 15.5597 65.786 17.7946C65.7688 18.0623 65.5348 18.3717 65.3177 18.5728C61.5871 22.0298 58.064 25.7505 54.3079 29.1799C53.2462 29.1292 52.7046 29.147 52.0636 29.1281C49.8828 29.1069 48.8277 29.1821 46.4171 29.1754C46.4832 27.9039 46.6841 26.3076 46.8185 25.452C46.9596 24.5522 47.4479 21.6291 47.4479 21.6291C47.4479 21.6291 48.1531 20.8297 49.4255 19.6576C52.4114 16.9069 55.3141 14.1556 58.2611 11.4063C59.2204 10.5225 59.0031 10.7524 59.8628 10.7778C61.9134 10.8714 63.9685 10.9026 66.1461 10.9612L66.148 10.9606Z" fill="#A97B95"/>
<path d="M42.7881 11.1946C44.6425 11.8765 46.4033 12.5109 48.1499 13.1835C48.3591 13.2638 48.5478 13.5275 48.6542 13.7507C50.484 17.5869 52.5758 21.323 54.3771 25.1726C54.0726 26.007 53.952 26.4435 53.7775 26.9501C53.218 28.6846 53.0155 29.5451 52.4105 31.4665C51.4126 31.0974 50.1891 30.54 49.54 30.2199C48.8573 29.8835 46.6468 28.7668 46.6468 28.7668C46.6468 28.7668 46.1845 28.0053 45.566 26.6987C44.1144 23.6324 42.6417 20.6323 41.1816 17.5973C40.7152 16.6121 40.8445 16.8427 41.0786 16.1632C41.6634 14.5506 42.1996 12.9189 42.7881 11.1963L42.7881 11.1946Z" fill="#A57E94"/>
<path d="M23.549 53.6508L23.549 53.6508L23.5486 53.6507C22.5183 53.415 21.0666 53.083 19.1833 52.0255C17.2969 50.9662 14.9651 49.1717 12.2004 45.9975L12.2004 45.9974C8.75741 42.0457 7.97329 38.5468 7.33503 35.6971L7.04228 35.7627L7.33503 35.6971C7.32968 35.6732 7.32433 35.6493 7.31899 35.6255C6.85262 33.5427 6.44851 31.7379 4.94385 30.6624C4.82599 30.5261 4.71328 30.2889 4.61756 29.9533C4.51923 29.6085 4.44797 29.1937 4.39828 28.7527C4.31317 27.9973 4.2939 27.1887 4.30152 26.5715H63.6984C63.7063 27.1886 63.6872 27.9972 63.6021 28.7527C63.5524 29.1936 63.4811 29.6085 63.3827 29.9532C63.2868 30.2888 63.174 30.5261 63.0559 30.6623C61.5526 31.7368 61.1487 33.5385 60.6821 35.6195L60.6647 35.697L60.6647 35.6971C60.0264 38.5467 59.2414 42.0448 55.7993 45.9975C53.0346 49.1713 50.7026 50.9658 48.8161 52.0252C46.9325 53.0829 45.4806 53.4151 44.4508 53.6508L44.4507 53.6508L44.5176 53.9433L44.4507 53.6508L44.4038 53.6616C43.7626 53.8082 43.1807 53.9413 42.7454 54.2301C42.3541 54.4896 42.0343 54.8516 41.7293 55.1968L41.7077 55.2212L41.7075 55.2215C41.1811 55.8184 40.5864 56.4915 39.4712 57.0263C38.3509 57.5635 36.681 57.9715 33.9999 57.9715C31.3187 57.9715 29.6485 57.5637 28.5282 57.0266C27.4129 56.492 26.8181 55.8188 26.2924 55.2216L26.2887 55.2175C25.9782 54.8643 25.6531 54.4946 25.2543 54.2301C24.819 53.9413 24.2372 53.8082 23.5959 53.6616L23.549 53.6508Z" fill="#7B63B1" stroke="#665294" stroke-width="0.6"/>
<path d="M26.2212 55.4572L26.222 55.4588C26.2237 55.4624 26.2268 55.4688 26.2315 55.478C26.2409 55.4963 26.2565 55.5254 26.2792 55.5639C26.3247 55.6408 26.3986 55.7549 26.5082 55.8941C26.7273 56.1721 27.0898 56.5512 27.6546 56.9335C28.7816 57.6964 30.7338 58.4852 33.9991 58.4852C37.2645 58.4852 39.2167 57.6964 40.3437 56.9335C40.9085 56.5512 41.271 56.1721 41.49 55.8941C41.5997 55.7549 41.6736 55.6408 41.7191 55.5639C41.7418 55.5254 41.7574 55.4963 41.7668 55.478C41.7691 55.4734 41.7711 55.4695 41.7727 55.4662C41.7742 55.4631 41.7754 55.4606 41.7763 55.4588L41.7771 55.4572C41.7772 55.457 41.7772 55.4569 41.7773 55.4567M26.2212 55.4572L42.0514 55.5787C41.7771 55.4572 41.7772 55.4569 41.7773 55.4567M26.2212 55.4572C26.2211 55.457 26.2211 55.4569 26.221 55.4567C26.221 55.4567 26.221 55.4567 26.221 55.4567C26.2209 55.4566 26.2209 55.4565 26.2208 55.4564L26.2206 55.4559C26.2206 55.4559 26.2206 55.4558 26.2206 55.4558C26.213 55.4388 26.2038 55.4226 26.1932 55.4074C25.4012 54.2694 25.3 52.7528 25.3 51.1254V43.208C25.3 39.2781 28.3757 36.0852 32.1053 36.0852H35.8947C39.6251 36.0852 42.7 39.279 42.7 43.208V51.1254C42.7 52.7045 42.5706 54.2633 41.8201 55.3876M26.2212 55.4572L41.8201 55.3876M41.7773 55.4567C41.7885 55.4315 41.803 55.4083 41.8201 55.3876M41.7773 55.4567L41.8201 55.3876" fill="#5D488A" stroke="#4B3A71" stroke-width="0.6" stroke-linecap="round" stroke-linejoin="round"/>
<path d="M3.30829 26.5715H64.6917C64.6945 26.666 64.6972 26.7814 64.6987 26.9133C64.7031 27.2973 64.6977 27.8184 64.6588 28.3693C64.6197 28.9218 64.5476 29.4952 64.4215 29.987C64.3085 30.4275 64.1615 30.7648 63.987 30.9715H4.01302C3.83853 30.7648 3.69148 30.4275 3.57853 29.987C3.45243 29.4952 3.38028 28.9218 3.34123 28.3693C3.30231 27.8184 3.29689 27.2973 3.30128 26.9133C3.30279 26.7814 3.30545 26.666 3.30829 26.5715Z" fill="#5D498A" stroke="#4B3A71" stroke-width="0.6" stroke-linecap="round" stroke-linejoin="round"/>
<path d="M1.69969 18.5715H66.3003C67.0652 18.5715 67.7 19.2123 67.7 20.0211V24.5218C67.7 25.3307 67.0652 25.9715 66.3003 25.9715H1.69969C0.934797 25.9715 0.3 25.3307 0.3 24.5218V20.0211C0.3 19.2123 0.934797 18.5715 1.69969 18.5715Z" fill="#7B63B1" stroke="#665294" stroke-width="0.6"/>
<path d="M43.6805 31.3203C43.67 36.7064 39.3257 41.0691 33.9814 41.0691C28.6372 41.0691 24.3098 36.7064 24.3203 31.3203C24.3308 25.9342 28.6751 21.5715 34.0193 21.5715C39.3636 21.5715 43.6909 25.9342 43.6805 31.3203Z" fill="#F3FF70" stroke="#FDFFCC" stroke-width="0.6"/>
<mask id="mask0_2454_51" style="mask-type:luminance" maskUnits="userSpaceOnUse" x="23" y="21" width="21" height="21">
<path d="M33.8297 41.1071C39.259 41.1071 43.6604 36.6667 43.6604 31.1893C43.6604 25.7118 39.259 21.2715 33.8297 21.2715C28.4004 21.2715 23.999 25.7118 23.999 31.1893C23.999 36.6667 28.4004 41.1071 33.8297 41.1071Z" fill="white"/>
</mask>
<g mask="url(#mask0_2454_51)">
<path d="M23.8691 33.8724L38.1234 21.4753" stroke="#FDFFCC" stroke-width="2" stroke-miterlimit="10"/>
<path d="M27.0562 38.0753L41.8017 25.3759" stroke="#FDFFCC" stroke-width="6" stroke-miterlimit="10"/>
</g>
</g>
<defs>
<clipPath id="clip0_2454_51">
<rect width="68" height="58" fill="white" transform="translate(0 0.785156)"/>
</clipPath>
</defs>
</svg>
