<svg width="68" height="59" viewBox="0 0 68 59" fill="none" xmlns="http://www.w3.org/2000/svg">
<g clip-path="url(#clip0_2454_117)">
<path d="M30.8774 23.037C32.0654 22.8727 33.3851 21.5745 34.4565 20.0846C37.3377 16.4238 39.2762 12.2071 41.5916 8.21302C42.092 7.34999 42.5666 6.47231 43.1552 5.41843C42.7108 5.5767 42.4817 5.6495 42.2598 5.73899C38.9409 7.07746 35.6064 8.37624 32.3102 9.77301C29.8491 10.8152 27.4651 11.9754 25.3552 13.7375C23.782 15.0516 23.9235 16.6599 24.1757 18.1341C24.4962 20.0094 26.4802 21.8036 27.4631 22.3811C28.6818 23.0963 30.8759 23.0375 30.8759 23.0375L30.8774 23.037Z" fill="#483F84"/>
<path d="M63.4404 17.2235C63.3406 16.0771 62.1605 14.7494 60.7847 13.6504C57.4162 10.7117 53.4693 8.64948 49.7541 6.23681C48.9513 5.71541 48.1332 5.21804 47.1518 4.60281C47.2819 5.03636 47.3406 5.2595 47.4156 5.47642C48.5373 8.72193 49.6202 11.9805 50.7988 15.207C51.6782 17.6161 52.6744 19.957 54.2607 22.0644C55.4437 23.6358 56.9918 23.5782 58.4168 23.4081C60.2295 23.1919 62.0451 21.3776 62.6462 20.4636C63.3907 19.3305 63.4408 17.225 63.4408 17.225L63.4404 17.2235Z" fill="#685BB3"/>
<path d="M18.011 15.8949C17.8075 14.7735 16.5221 13.5724 15.0646 12.6147C11.4736 10.0254 7.3925 8.35343 3.5077 6.31463C2.66827 5.87401 1.81597 5.4585 0.791805 4.94173C0.959837 5.35734 1.03812 5.57202 1.13196 5.77906C2.53547 8.87679 3.90192 11.9909 5.35987 15.0647C6.44777 17.3599 7.64466 19.577 9.4021 21.5099C10.7127 22.9511 12.234 22.7524 13.6237 22.4541C15.3914 22.0748 17.0157 20.1192 17.5246 19.1629C18.155 17.9772 18.0115 15.8963 18.0115 15.8963L18.011 15.8949Z" fill="#41358E"/>
<path d="M47.5453 8.36533C46.3054 8.5496 44.9399 9.92033 43.8358 11.4888C40.8633 15.3453 38.8818 19.7727 36.504 23.9715C35.9902 24.8787 35.5034 25.801 34.8994 26.9087C35.3621 26.7386 35.6009 26.6601 35.8318 26.5642C39.2864 25.1303 42.7576 23.7377 46.1878 22.2431C48.7491 21.1279 51.2283 19.8902 53.4149 18.0262C55.0452 16.6362 54.8803 14.9569 54.6012 13.4188C54.2464 11.4623 52.1539 9.608 51.1206 9.01488C49.8393 8.28026 47.5468 8.36488 47.5468 8.36488L47.5453 8.36533Z" fill="#5544C0"/>
<path d="M15.1138 13.3928C14.8918 14.3781 15.5249 15.8026 16.3827 17.0882C18.4165 20.4428 21.1675 23.2187 23.6314 26.226C24.1638 26.8758 24.7153 27.5097 25.3721 28.2856C25.3788 27.8884 25.3892 27.6862 25.3843 27.4848C25.3109 24.4721 25.2735 21.4588 25.1475 18.4468C25.054 16.198 24.8446 13.9752 24.0795 11.7903C23.5089 10.1612 22.1991 9.79696 20.9622 9.55959C19.3888 9.25748 17.3872 10.2909 16.6411 10.895C15.7167 11.6442 15.1139 13.3915 15.1139 13.3915L15.1138 13.3928Z" fill="#5F5697"/>
<path d="M42.1806 14.224C41.8018 13.3094 40.49 12.526 39.0768 11.9807C35.5527 10.4424 31.781 9.77282 28.1087 8.75578C27.3151 8.53595 26.5153 8.33981 25.5509 8.08927C25.7699 8.41122 25.8758 8.57907 25.9935 8.73759C27.7541 11.1094 29.4861 13.502 31.2885 15.8434C32.6337 17.5919 34.057 19.2541 35.904 20.5721C37.2813 21.5548 38.5363 21.1067 39.6612 20.5981C41.0921 19.9513 42.1117 17.9929 42.3681 17.0876C42.6854 15.9652 42.1812 14.2251 42.1812 14.2251L42.1806 14.224Z" fill="#5345A8"/>
<path d="M23.549 53.6508L23.549 53.6508L23.5486 53.6507C22.5183 53.415 21.0666 53.083 19.1833 52.0255C17.2969 50.9662 14.9651 49.1717 12.2004 45.9975L12.2004 45.9974C8.75741 42.0457 7.97329 38.5468 7.33503 35.6971L7.04228 35.7627L7.33503 35.6971C7.32968 35.6732 7.32433 35.6493 7.31899 35.6255C6.85262 33.5427 6.44851 31.7379 4.94385 30.6624C4.82599 30.5261 4.71328 30.2889 4.61756 29.9533C4.51923 29.6085 4.44797 29.1937 4.39828 28.7527C4.31317 27.9973 4.2939 27.1887 4.30152 26.5715H63.6984C63.7063 27.1886 63.6872 27.9972 63.6021 28.7527C63.5524 29.1936 63.4811 29.6085 63.3827 29.9532C63.2868 30.2888 63.174 30.5261 63.0559 30.6623C61.5526 31.7368 61.1487 33.5385 60.6821 35.6195L60.6647 35.697L60.6647 35.6971C60.0264 38.5467 59.2414 42.0448 55.7993 45.9975C53.0346 49.1713 50.7026 50.9658 48.8161 52.0252C46.9325 53.0829 45.4806 53.4151 44.4508 53.6508L44.4507 53.6508L44.5176 53.9433L44.4507 53.6508L44.4038 53.6616C43.7626 53.8082 43.1807 53.9413 42.7454 54.2301C42.3541 54.4896 42.0343 54.8516 41.7293 55.1968L41.7077 55.2212L41.7075 55.2215C41.1811 55.8184 40.5864 56.4915 39.4712 57.0263C38.3509 57.5635 36.681 57.9715 33.9999 57.9715C31.3187 57.9715 29.6485 57.5637 28.5282 57.0266C27.4129 56.492 26.8181 55.8188 26.2924 55.2216L26.2887 55.2175C25.9782 54.8643 25.6531 54.4946 25.2543 54.2301C24.819 53.9413 24.2372 53.8082 23.5959 53.6616L23.549 53.6508Z" fill="#EC7777" stroke="#C96464" stroke-width="0.6"/>
<path d="M26.2212 55.4572L26.222 55.4588C26.2237 55.4624 26.2268 55.4688 26.2315 55.478C26.2409 55.4963 26.2565 55.5254 26.2792 55.5639C26.3247 55.6408 26.3986 55.7549 26.5082 55.8941C26.7273 56.1721 27.0898 56.5512 27.6546 56.9335C28.7816 57.6964 30.7338 58.4852 33.9991 58.4852C37.2645 58.4852 39.2167 57.6964 40.3437 56.9335C40.9085 56.5512 41.271 56.1721 41.49 55.8941C41.5997 55.7549 41.6736 55.6408 41.7191 55.5639C41.7418 55.5254 41.7574 55.4963 41.7668 55.478C41.7691 55.4734 41.7711 55.4695 41.7727 55.4662C41.7742 55.4631 41.7754 55.4606 41.7763 55.4588L41.7771 55.4572C41.7772 55.457 41.7772 55.4569 41.7773 55.4567M26.2212 55.4572L42.0514 55.5787C41.7771 55.4572 41.7772 55.4569 41.7773 55.4567M26.2212 55.4572C26.2211 55.457 26.2211 55.4569 26.221 55.4567C26.221 55.4567 26.221 55.4567 26.221 55.4567C26.2209 55.4566 26.2209 55.4565 26.2208 55.4564L26.2206 55.4559C26.2206 55.4559 26.2206 55.4558 26.2206 55.4558C26.213 55.4388 26.2038 55.4226 26.1932 55.4074C25.4012 54.2694 25.3 52.7528 25.3 51.1254V43.208C25.3 39.2781 28.3757 36.0852 32.1053 36.0852H35.8947C39.6251 36.0852 42.7 39.279 42.7 43.208V51.1254C42.7 52.7045 42.5706 54.2633 41.8201 55.3876M26.2212 55.4572L41.8201 55.3876M41.7773 55.4567C41.7885 55.4315 41.803 55.4083 41.8201 55.3876M41.7773 55.4567L41.8201 55.3876" fill="#CB6363" stroke="#A85050" stroke-width="0.6" stroke-linecap="round" stroke-linejoin="round"/>
<path d="M3.30829 26.5715H64.6917C64.6945 26.666 64.6972 26.7814 64.6987 26.9133C64.7031 27.2973 64.6977 27.8184 64.6588 28.3693C64.6197 28.9218 64.5476 29.4952 64.4215 29.987C64.3085 30.4275 64.1615 30.7648 63.987 30.9715H4.01302C3.83853 30.7648 3.69148 30.4275 3.57853 29.987C3.45243 29.4952 3.38028 28.9218 3.34123 28.3693C3.30231 27.8184 3.29689 27.2973 3.30128 26.9133C3.30279 26.7814 3.30545 26.666 3.30829 26.5715Z" fill="#CB6363" stroke="#A85050" stroke-width="0.6" stroke-linecap="round" stroke-linejoin="round"/>
<path d="M1.69969 18.5715H66.3003C67.0652 18.5715 67.7 19.2123 67.7 20.0211V24.5218C67.7 25.3307 67.0652 25.9715 66.3003 25.9715H1.69969C0.934797 25.9715 0.3 25.3307 0.3 24.5218V20.0211C0.3 19.2123 0.934797 18.5715 1.69969 18.5715Z" fill="#EC7777" stroke="#C96464" stroke-width="0.6"/>
<path d="M43.6805 31.3203C43.67 36.7064 39.3257 41.0691 33.9814 41.0691C28.6372 41.0691 24.3098 36.7064 24.3203 31.3203C24.3308 25.9342 28.6751 21.5715 34.0193 21.5715C39.3636 21.5715 43.6909 25.9342 43.6805 31.3203Z" fill="#F3FF70" stroke="#FDFFCC" stroke-width="0.6"/>
<mask id="mask0_2454_117" style="mask-type:luminance" maskUnits="userSpaceOnUse" x="23" y="21" width="21" height="21">
<path d="M33.8297 41.1071C39.259 41.1071 43.6604 36.6667 43.6604 31.1893C43.6604 25.7118 39.259 21.2715 33.8297 21.2715C28.4004 21.2715 23.999 25.7118 23.999 31.1893C23.999 36.6667 28.4004 41.1071 33.8297 41.1071Z" fill="white"/>
</mask>
<g mask="url(#mask0_2454_117)">
<path d="M23.8691 33.8724L38.1234 21.4753" stroke="#FDFFCC" stroke-width="2" stroke-miterlimit="10"/>
<path d="M27.0562 38.0753L41.8017 25.3759" stroke="#FDFFCC" stroke-width="6" stroke-miterlimit="10"/>
</g>
</g>
<defs>
<clipPath id="clip0_2454_117">
<rect width="68" height="58" fill="white" transform="translate(0 0.785156)"/>
</clipPath>
</defs>
</svg>
