<svg width="48" height="49" viewBox="0 0 48 49" fill="none" xmlns="http://www.w3.org/2000/svg">
<g id="icon/linkedin">
<path id="vector" d="M42 9.43222V40.1381C42 40.8401 41.7211 41.5134 41.2247 42.0099C40.7283 42.5063 40.055 42.7852 39.3529 42.7852H8.64706C7.94502 42.7852 7.27173 42.5063 6.77531 42.0099C6.27889 41.5134 6 40.8401 6 40.1381V9.43222C6 8.73017 6.27889 8.05688 6.77531 7.56046C7.27173 7.06404 7.94502 6.78516 8.64706 6.78516H39.3529C40.055 6.78516 40.7283 7.06404 41.2247 7.56046C41.7211 8.05688 42 8.73017 42 9.43222ZM16.5882 20.5499H11.2941V37.491H16.5882V20.5499ZM17.0647 14.7263C17.0675 14.3259 16.9914 13.9288 16.8407 13.5578C16.69 13.1867 16.4677 12.849 16.1866 12.5638C15.9054 12.2787 15.5707 12.0518 15.2018 11.896C14.8329 11.7401 14.4369 11.6585 14.0365 11.6557H13.9412C13.1268 11.6557 12.3458 11.9793 11.7699 12.5551C11.1941 13.1309 10.8706 13.912 10.8706 14.7263C10.8706 15.5407 11.1941 16.3217 11.7699 16.8976C12.3458 17.4734 13.1268 17.7969 13.9412 17.7969C14.3417 17.8068 14.7402 17.7376 15.1139 17.5934C15.4877 17.4492 15.8293 17.2328 16.1194 16.9564C16.4095 16.6801 16.6423 16.3494 16.8045 15.9831C16.9667 15.6168 17.0551 15.2221 17.0647 14.8216V14.7263ZM36.7059 27.1993C36.7059 22.1063 33.4659 20.1263 30.2471 20.1263C29.1932 20.0736 28.1438 20.298 27.2037 20.7774C26.2637 21.2567 25.4657 21.9741 24.8894 22.8581H24.7412V20.5499H19.7647V37.491H25.0588V28.4805C24.9823 27.5576 25.273 26.6419 25.8678 25.9321C26.4625 25.2224 27.3133 24.7759 28.2353 24.6899H28.4365C30.12 24.6899 31.3694 25.7487 31.3694 28.4169V37.491H36.6635L36.7059 27.1993Z" fill="#450027"/>
</g>
</svg>
