<svg width="273" height="560" viewBox="0 0 273 560" fill="none" xmlns="http://www.w3.org/2000/svg">
<g clip-path="url(#clip0_2403_12365)">
<path d="M271.45 165.751H267.741C267.664 165.751 267.588 165.765 267.517 165.794C267.446 165.823 267.382 165.866 267.327 165.919C267.273 165.973 267.23 166.038 267.2 166.108C267.171 166.179 267.156 166.255 267.156 166.331V226.072C267.155 226.149 267.17 226.225 267.199 226.297C267.228 226.368 267.271 226.433 267.325 226.487C267.38 226.542 267.445 226.585 267.516 226.614C267.587 226.643 267.664 226.658 267.741 226.657H271.45C271.527 226.658 271.603 226.643 271.674 226.614C271.746 226.585 271.81 226.542 271.865 226.488C271.919 226.434 271.962 226.369 271.992 226.298C272.021 226.227 272.036 226.151 272.035 226.074V166.334C272.036 166.257 272.021 166.181 271.992 166.11C271.962 166.039 271.919 165.975 271.865 165.92C271.81 165.866 271.746 165.823 271.674 165.794C271.603 165.765 271.527 165.751 271.45 165.751Z" fill="#6C635B"/>
<path d="M271.484 165.978H267.707C267.634 165.978 267.562 165.992 267.495 166.019C267.428 166.047 267.367 166.088 267.316 166.139C267.265 166.19 267.224 166.251 267.197 166.318C267.169 166.385 267.155 166.457 267.156 166.529V225.879C267.156 226.185 267.401 226.43 267.707 226.43H271.484C271.557 226.431 271.629 226.417 271.696 226.389C271.764 226.361 271.825 226.32 271.876 226.269C271.927 226.217 271.968 226.156 271.995 226.089C272.022 226.021 272.036 225.949 272.035 225.877V166.532C272.036 166.459 272.022 166.387 271.995 166.32C271.968 166.252 271.927 166.191 271.876 166.14C271.825 166.088 271.764 166.047 271.696 166.02C271.629 165.992 271.557 165.978 271.484 165.978Z" fill="url(#paint0_linear_2403_12365)"/>
<path d="M5.31031 139.96H1.59829C1.52168 139.959 1.44576 139.974 1.37491 140.003C1.30406 140.032 1.23969 140.075 1.18552 140.13C1.13135 140.184 1.08845 140.248 1.05929 140.319C1.03013 140.39 1.0153 140.466 1.01565 140.542L1.01565 176.068C1.01495 176.144 1.02952 176.221 1.05852 176.292C1.08752 176.363 1.13037 176.428 1.18458 176.482C1.23879 176.536 1.30327 176.58 1.3743 176.609C1.44532 176.638 1.52145 176.653 1.59829 176.653H5.31031C5.38715 176.653 5.46329 176.638 5.53431 176.609C5.60533 176.58 5.66981 176.536 5.72402 176.482C5.77823 176.428 5.82108 176.363 5.85008 176.292C5.87908 176.221 5.89365 176.144 5.89295 176.068L5.89295 140.542C5.89295 140.466 5.87786 140.39 5.84855 140.32C5.81924 140.249 5.77628 140.185 5.72214 140.131C5.668 140.077 5.60375 140.035 5.53308 140.006C5.46241 139.977 5.3867 139.962 5.31031 139.962V139.96Z" fill="#6C635B"/>
<path d="M5.34454 140.186H1.5666C1.4937 140.186 1.42139 140.2 1.35391 140.227C1.28642 140.255 1.2251 140.295 1.17355 140.347C1.122 140.399 1.08125 140.46 1.05367 140.527C1.0261 140.595 1.01226 140.667 1.01297 140.74L1.01297 175.87C1.01297 176.176 1.26078 176.423 1.5666 176.423H5.34454C5.417 176.423 5.48874 176.409 5.55561 176.381C5.62249 176.353 5.68318 176.312 5.73417 176.261C5.78516 176.21 5.82544 176.148 5.85269 176.081C5.87993 176.014 5.8936 175.942 5.89291 175.87L5.89291 140.74C5.89325 140.668 5.87932 140.596 5.85192 140.529C5.82452 140.463 5.78418 140.402 5.73323 140.351C5.68227 140.299 5.6217 140.259 5.555 140.231C5.4883 140.203 5.41677 140.186 5.34454 140.186Z" fill="url(#paint1_linear_2403_12365)"/>
<path d="M5.31029 100.562H1.59827C1.52188 100.561 1.44617 100.576 1.3755 100.605C1.30482 100.634 1.24057 100.677 1.18644 100.731C1.1323 100.784 1.08934 100.849 1.06003 100.919C1.03071 100.99 1.01562 101.065 1.01563 101.142L1.01563 121.811C1.01562 121.887 1.03071 121.963 1.06003 122.033C1.08934 122.104 1.1323 122.168 1.18644 122.222C1.24057 122.276 1.30482 122.318 1.3755 122.347C1.44617 122.376 1.52188 122.391 1.59827 122.391H5.31029C5.38668 122.391 5.46238 122.376 5.53306 122.347C5.60373 122.318 5.66798 122.276 5.72212 122.222C5.77626 122.168 5.81922 122.104 5.84853 122.033C5.87784 121.963 5.89293 121.887 5.89293 121.811L5.89293 101.142C5.89293 101.065 5.87784 100.99 5.84853 100.919C5.81922 100.849 5.77626 100.784 5.72212 100.731C5.66798 100.677 5.60373 100.634 5.53306 100.605C5.46238 100.576 5.38668 100.561 5.31029 100.562Z" fill="#6C635B"/>
<path d="M5.34452 100.788H1.56659C1.49391 100.788 1.42182 100.801 1.3545 100.829C1.28719 100.856 1.22599 100.897 1.17448 100.948C1.12296 100.999 1.08215 101.06 1.05442 101.127C1.02669 101.195 1.01259 101.267 1.01295 101.339L1.01295 121.613C1.01295 121.919 1.26077 122.167 1.56659 122.167H5.34452C5.41698 122.167 5.48872 122.152 5.55559 122.125C5.62247 122.097 5.68316 122.056 5.73415 122.004C5.78514 121.953 5.82542 121.892 5.85267 121.825C5.87991 121.757 5.89358 121.686 5.89289 121.613L5.89289 101.339C5.89358 101.267 5.87991 101.195 5.85267 101.128C5.82542 101.061 5.78514 101 5.73415 100.948C5.68316 100.897 5.62247 100.856 5.55559 100.828C5.48872 100.8 5.41698 100.788 5.34452 100.788Z" fill="url(#paint2_linear_2403_12365)"/>
<path d="M5.3103 189.495H1.59827C1.52188 189.494 1.44618 189.509 1.3755 189.538C1.30483 189.567 1.24058 189.61 1.18644 189.664C1.1323 189.718 1.08934 189.782 1.06003 189.852C1.03072 189.923 1.01563 189.998 1.01563 190.075L1.01563 225.6C1.01528 225.677 1.03011 225.752 1.05927 225.823C1.08843 225.894 1.13133 225.959 1.1855 226.013C1.23968 226.067 1.30405 226.11 1.37489 226.139C1.44574 226.168 1.52166 226.183 1.59827 226.183H5.3103C5.38668 226.183 5.46239 226.168 5.53306 226.139C5.60374 226.11 5.66799 226.068 5.72213 226.014C5.77626 225.96 5.81922 225.896 5.84853 225.825C5.87785 225.755 5.89294 225.679 5.89293 225.603L5.89293 190.075C5.89328 189.998 5.87845 189.922 5.8493 189.851C5.82014 189.78 5.77723 189.716 5.72306 189.662C5.66889 189.608 5.60452 189.565 5.53367 189.536C5.46283 189.507 5.38691 189.492 5.3103 189.492V189.495Z" fill="#6C635B"/>
<path d="M5.34452 189.721H1.56659C1.49391 189.721 1.42182 189.734 1.3545 189.762C1.28719 189.789 1.22599 189.83 1.17448 189.881C1.12296 189.932 1.08215 189.993 1.05442 190.06C1.02669 190.128 1.01259 190.2 1.01295 190.272L1.01295 225.405C1.01295 225.711 1.26077 225.958 1.56659 225.958H5.34452C5.41698 225.958 5.48872 225.944 5.55559 225.916C5.62247 225.888 5.68316 225.847 5.73415 225.796C5.78514 225.744 5.82542 225.683 5.85267 225.616C5.87991 225.549 5.89358 225.477 5.89289 225.405L5.89289 190.272C5.89358 190.2 5.87991 190.128 5.85267 190.061C5.82542 189.994 5.78514 189.933 5.73415 189.881C5.68316 189.83 5.62247 189.789 5.55559 189.761C5.48872 189.733 5.41698 189.721 5.34452 189.721Z" fill="url(#paint3_linear_2403_12365)"/>
<path d="M43.6722 0.489891L229.376 0.489891C252.202 0.489891 270.575 18.8655 270.575 41.6886L270.575 518.077C270.575 540.901 252.199 559.276 229.376 559.276H43.6722C38.2586 559.288 32.896 558.23 27.8922 556.164C22.8884 554.098 18.342 551.064 14.514 547.236C10.686 543.408 7.65173 538.861 5.58548 533.857C3.51924 528.854 2.46167 523.491 2.47349 518.077L2.47349 41.6886C2.47349 18.8655 20.8491 0.489891 43.6722 0.489891Z" fill="#6C635B"/>
<g filter="url(#filter0_f_2403_12365)">
<path d="M44.3207 2.09281L228.728 2.09281C251.163 2.09281 269.228 20.1573 269.228 42.5955L269.228 517.17C269.228 539.606 251.163 557.671 228.728 557.671H44.3207C38.9989 557.682 33.7271 556.643 28.8081 554.612C23.889 552.581 19.4196 549.598 15.6565 545.835C11.8934 542.072 8.9106 537.602 6.87947 532.683C4.84834 527.764 3.80884 522.492 3.82066 517.17L3.82066 42.5955C3.82329 20.1573 21.8851 2.09281 44.3207 2.09281Z" fill="#DAD5C5"/>
</g>
<path d="M214.763 0.489891V54.2668L2.4762 54.2668V57.6835L270.575 57.6835V54.2668H218.182V0.489891L214.763 0.489891ZM2.4762 502.082V505.502H54.8716V559.276H58.2884V505.499H270.578V502.082H2.4762Z" fill="#3D342C" fill-opacity="0.295364"/>
<path d="M44.9509 3.73528L228.1 3.73528C249.771 3.73528 267.216 21.1802 267.216 42.8513L267.216 516.915C267.216 538.586 249.771 556.031 228.1 556.031H44.9509C39.8106 556.042 34.7185 555.039 29.9671 553.077C25.2157 551.116 20.8986 548.235 17.2635 544.601C13.6285 540.966 10.7472 536.649 8.78506 531.898C6.8229 527.147 5.81856 522.055 5.82968 516.915L5.82968 42.8513C5.82968 21.1802 23.2799 3.73528 44.9509 3.73528Z" fill="#151515"/>
<path d="M46.4747 6.22929L226.574 6.22929C231.484 6.21852 236.349 7.17778 240.888 9.05202C245.427 10.9263 249.551 13.6786 253.023 17.1509C256.495 20.6232 259.247 24.7472 261.122 29.2861C262.996 33.825 263.955 38.6894 263.944 43.6V516.166C263.955 521.077 262.996 525.941 261.122 530.48C259.247 535.019 256.495 539.143 253.023 542.615C249.551 546.087 245.427 548.84 240.888 550.714C236.349 552.588 231.484 553.547 226.574 553.537H46.4747C41.5641 553.547 36.6997 552.588 32.1608 550.714C27.6219 548.84 23.4979 546.087 20.0256 542.615C16.5532 539.143 13.8009 535.019 11.9267 530.48C10.0525 525.941 9.0932 521.077 9.10397 516.166L9.10397 43.6C9.0932 38.6894 10.0525 33.825 11.9267 29.2861C13.8009 24.7472 16.5532 20.6232 20.0256 17.1509C23.4979 13.6786 27.6219 10.9263 32.1608 9.05202C36.6997 7.17778 41.5641 6.21852 46.4747 6.22929Z" fill="black"/>
<g clip-path="url(#clip1_2403_12365)">
<path d="M44.3736 10.2208L228.678 10.2208C232.971 10.2117 237.224 11.0508 241.192 12.6897C245.16 14.3287 248.765 16.7353 251.801 19.7713C254.836 22.8074 257.242 26.4131 258.881 30.3815C260.519 34.3499 261.357 38.6028 261.348 42.8961V516.87C261.357 521.163 260.518 525.416 258.88 529.384C257.241 533.353 254.835 536.958 251.799 539.994C248.763 543.03 245.158 545.436 241.189 547.075C237.221 548.713 232.968 549.552 228.675 549.543H44.3736C40.0805 549.552 35.8279 548.713 31.8598 547.075C27.8917 545.436 24.2863 543.03 21.2505 539.995C18.2147 536.959 15.8084 533.354 14.1696 529.386C12.5308 525.418 11.6919 521.166 11.7009 516.873L11.7009 42.8961C11.6912 38.6026 12.5296 34.3495 14.1681 30.3809C15.8065 26.4123 18.2128 22.8065 21.2486 19.7704C24.2845 16.7343 27.8901 14.3278 31.8586 12.689C35.827 11.0502 40.0801 10.2114 44.3736 10.2208Z" fill="#333333"/>
<g clip-path="url(#clip2_2403_12365)">
<rect width="251.433" height="545.092" transform="translate(11.4056 5.23418)" fill="#EB0559"/>
<path d="M140.815 184.764L130.759 174.804L130.717 166.802L139.671 157.761L156.681 158.688L157.771 175.688L148.817 184.729L140.815 184.764Z" fill="#E30053"/>
<path d="M116.867 41.7148L85.6213 16.8338L85.6924 56.7755L136.582 162.112L167.827 186.993L167.756 147.052L116.867 41.7148Z" fill="#A9003E"/>
<path d="M-86.5294 -36.8094L-166.229 -13.903L-154.082 18.4393L-44.0167 76.3887L18.7945 67.2946L29.6095 37.3113L-86.5294 -36.8094Z" fill="#BC0045"/>
<path d="M70.7575 -24.5534L184.43 6.59182L167.403 52.1442L11.1649 134.88L-78.346 122.909L-93.9942 80.9587L70.7575 -24.5534Z" fill="#D5004E"/>
<path d="M26.9622 5.71542L24.394 -7.775L13.7356 -15.0655L-0.539907 -17.0076L-13.1033 -9.95615L-20.3374 0.740581L-17.7692 14.231L-9.8718 31.3667L17.4375 77.4253L25.9133 24.5542L26.9622 5.71542Z" fill="#FF0F67"/>
<path d="M62.4532 138.704L66.2012 145.015L65.1786 149.037L59.5045 152.407L51.0876 149.723L52.758 141.047L58.4321 137.678L62.4532 138.704Z" fill="#E30053"/>
<path d="M162.61 527.834L150.341 560.385L117.82 548.039L84.91 475.084L97.1789 442.534L129.7 454.879L162.61 527.834Z" fill="#A9003E"/>
<path d="M155.293 589.723L75.5947 566.813L87.7427 534.471L197.811 476.527L260.622 485.624L271.435 515.608L155.293 589.723Z" fill="#BC0045"/>
<path d="M312.581 577.475L426.254 546.335L409.23 500.781L252.996 418.038L163.484 430.005L147.834 471.955L312.581 577.475Z" fill="#D5004E"/>
<path d="M268.787 547.204L266.218 560.694L255.559 567.984L241.283 569.925L228.72 562.873L221.487 552.176L224.056 538.686L231.954 521.551L259.265 475.493L267.739 528.365L268.787 547.204Z" fill="#FF0F67"/>
<path d="M116.965 375.596L99.9075 365.747L89.1491 368.624L80.2943 383.96L87.7749 406.456L110.997 401.687L119.852 386.351L116.965 375.596Z" fill="#E40053"/>
<path d="M170.713 363.831L165.391 368.886L165.283 373.035L169.828 377.82L178.657 377.524L179.407 368.721L174.862 363.936L170.713 363.831Z" fill="#E30053"/>
<g filter="url(#filter1_b_2403_12365)">
<rect x="11.4055" y="5.23443" width="251.433" height="545.091" rx="12.7956" fill="#A9003E" fill-opacity="0.01"/>
<path d="M81.7677 274.348C82.4774 274.348 83.2759 274.47 84.163 274.714C85.0502 274.958 85.9484 275.268 86.8577 275.645C87.7671 276.044 88.3437 276.277 88.5877 276.344C89.6301 276.676 91.2381 276.843 93.4116 276.843C93.3229 277.686 93.1787 278.418 92.9791 279.039C92.8016 279.66 92.5576 280.17 92.2471 280.569C90.5837 280.48 89.1088 280.192 87.8224 279.704C87.4676 279.571 86.8244 279.294 85.8929 278.872C84.9614 278.473 84.1408 278.162 83.431 277.941C82.7213 277.741 82.0449 277.641 81.4017 277.641C80.7807 277.641 79.8935 277.774 78.7402 278.04C77.609 278.329 77.0324 278.473 77.0102 278.473C76.2118 277.785 75.8126 277.02 75.8126 276.177C77.1655 275.556 78.3188 275.09 79.2725 274.78C80.2484 274.492 81.0801 274.347 81.7677 274.348ZM83.1983 270.089C86.88 270.089 88.721 267.261 88.7211 261.606C88.7212 255.95 86.8804 253.122 83.1987 253.122C81.6018 253.122 80.2046 253.366 79.0069 253.854C77.9866 255.983 77.4764 258.456 77.4764 261.273C77.4763 264.067 77.8976 266.241 78.7404 267.794C79.5832 269.324 81.0692 270.089 83.1983 270.089ZM83.1988 249.529C86.9027 249.529 89.5087 250.505 91.0168 252.457C92.525 254.387 93.279 257.348 93.2789 261.34C93.2788 263.846 92.9572 265.986 92.314 267.761C91.6707 269.535 90.5839 270.954 89.0535 272.019C87.5232 273.083 85.5714 273.616 83.1983 273.616C79.5831 273.616 76.9549 272.606 75.3137 270.588C73.6947 268.57 72.8852 265.631 72.8853 261.772C72.8855 253.61 76.3233 249.529 83.1988 249.529ZM110.401 256.184C110.823 256.184 111.089 256.195 111.2 256.217C111.2 257.348 111.011 258.324 110.634 259.144C110.501 264.024 110.39 267.628 110.301 269.957C111.299 270.045 112.175 270.212 112.929 270.456L112.863 272.785C111.51 273.206 110.346 273.417 109.37 273.417C108.394 273.417 107.728 273.394 107.374 273.35C107.107 272.818 106.886 272.285 106.708 271.753C104.867 272.995 103.537 273.616 102.716 273.616C98.7459 273.616 96.7609 271.609 96.761 267.594C96.761 266.508 96.8498 263.835 97.0273 259.577C95.8519 259.577 94.7762 259.421 93.8003 259.111C93.8003 258.556 93.878 257.758 94.0333 256.716C95.3418 256.361 97.5819 256.183 100.753 256.183C101.175 256.183 101.441 256.194 101.552 256.217C101.552 257.303 101.363 258.313 100.986 259.244L100.986 265.964C100.986 267.384 101.13 268.426 101.419 269.092C101.729 269.735 102.372 270.056 103.348 270.056C104.346 270.056 105.366 269.713 106.409 269.025L106.209 259.577C105.234 259.532 104.313 259.377 103.448 259.111C103.448 258.557 103.526 257.758 103.681 256.716C104.99 256.361 107.23 256.184 110.401 256.184ZM121.205 256.184C121.626 256.184 121.892 256.195 122.003 256.217C122.003 257.304 121.814 258.313 121.437 259.245C121.349 264.035 121.293 267.628 121.271 270.024L123.866 270.323C123.866 271.232 123.611 272.197 123.1 273.217L114.817 273.217L114.517 271.387C115.892 270.877 116.89 270.545 117.511 270.389L117.146 259.61C115.837 259.477 114.872 259.311 114.251 259.111C114.251 258.557 114.329 257.758 114.484 256.716C115.793 256.361 118.033 256.184 121.205 256.184ZM121.205 249.896C121.404 250.894 121.504 251.659 121.504 252.192C121.504 252.702 121.46 253.278 121.371 253.922C120.484 254.121 119.73 254.221 119.109 254.221C118.51 254.221 117.778 254.188 116.913 254.121C116.713 253.123 116.614 252.369 116.614 251.859C116.614 251.327 116.658 250.739 116.747 250.096C117.634 249.896 118.377 249.796 118.976 249.796C119.597 249.796 120.34 249.83 121.205 249.896ZM138.192 267.13C138.547 268.394 138.724 269.492 138.724 270.423C138.724 271.355 138.68 272.286 138.591 273.218L125.683 273.217C125.239 272.574 124.995 271.787 124.951 270.855L133.401 259.178L129.975 259.178L129.243 262.472C129.065 262.494 128.666 262.505 128.045 262.505C127.446 262.505 126.792 262.427 126.082 262.272C125.772 260.675 125.616 259.433 125.616 258.546C125.616 257.659 125.65 256.916 125.716 256.317L137.926 256.317C138.236 256.938 138.392 257.748 138.392 258.746L130.307 270.223L134.333 270.223L135.064 266.93C136.44 266.93 137.482 266.996 138.192 267.13ZM146.92 273.617C145.034 273.617 143.571 273.229 142.528 272.453C141.508 271.676 140.998 270.368 140.998 268.527C140.998 266.775 141.608 265.344 142.828 264.235C143.538 263.592 144.525 263.215 145.789 263.104C147.053 262.993 148.794 262.938 151.012 262.938L151.012 262.406C151.012 261.053 150.79 260.066 150.347 259.445C149.925 258.802 149.171 258.48 148.084 258.48C147.53 258.48 147.031 258.591 146.587 258.813L145.789 261.707L143.327 261.64C142.772 260.798 142.473 259.456 142.429 257.615C142.872 257.393 143.915 257.06 145.556 256.617C147.197 256.151 148.251 255.918 148.717 255.918C151.112 255.918 152.853 256.417 153.94 257.416C155.026 258.391 155.57 259.955 155.57 262.106C155.57 264.236 155.47 267.052 155.27 270.557C156.534 270.668 157.51 270.856 158.198 271.122C158.22 271.388 158.231 271.71 158.231 272.087L158.198 272.819C156.601 273.351 154.993 273.617 153.374 273.617C152.952 273.617 152.642 273.606 152.442 273.584C152.11 272.919 151.91 272.12 151.843 271.189L151.677 271.189C151.256 271.588 150.513 272.098 149.448 272.719C148.406 273.318 147.563 273.617 146.92 273.617ZM145.256 268.727C145.256 269.459 145.478 270.002 145.922 270.357C146.387 270.689 146.909 270.856 147.485 270.856C148.062 270.856 148.749 270.601 149.548 270.091C150.346 269.558 150.99 269.082 151.478 268.66L151.311 265.6C149.559 265.688 148.239 265.855 147.352 266.098C145.955 266.387 145.256 267.263 145.256 268.727ZM164.521 248.5C165.054 248.5 165.397 248.511 165.553 248.533C165.553 249.686 165.408 250.696 165.12 251.561L165.02 257.15C167.083 256.329 168.502 255.919 169.279 255.919C171.474 255.919 173.093 256.74 174.136 258.381C175.2 260 175.732 262.107 175.732 264.702C175.732 267.297 175.145 269.437 173.969 271.123C172.793 272.786 171.086 273.618 168.846 273.618C167.382 273.618 165.84 273.063 164.221 271.954C164.133 272.464 164 272.93 163.822 273.351C163.423 273.396 163.024 273.418 162.624 273.418C162.225 273.418 161.726 273.351 161.127 273.218L160.429 251.926C159.387 251.815 158.511 251.649 157.801 251.427C157.801 250.607 157.879 249.808 158.034 249.032C159.32 248.677 161.483 248.5 164.521 248.5ZM168.713 259.412C167.271 259.412 166.029 259.667 164.987 260.177C164.942 263.903 164.898 266.72 164.854 268.627C165.386 269.071 165.996 269.47 166.683 269.825C167.371 270.18 167.959 270.357 168.446 270.357C170.376 270.357 171.341 268.583 171.341 265.034C171.341 263.526 171.13 262.218 170.709 261.109C170.31 259.978 169.644 259.412 168.713 259.412ZM182.762 248.5C183.184 248.5 183.45 248.511 183.561 248.534C183.561 249.687 183.417 250.696 183.128 251.561C183.106 252.936 183.073 254.877 183.028 257.383C182.939 262.883 182.873 267.097 182.828 270.025L185.423 270.324C185.423 271.234 185.168 272.199 184.658 273.219L176.374 273.219L176.075 271.389C177.45 270.879 178.448 270.546 179.069 270.391L178.437 251.927C177.395 251.816 176.519 251.65 175.809 251.428C175.809 250.607 175.887 249.809 176.042 249.032C177.351 248.678 179.591 248.5 182.762 248.5ZM194.869 270.358C195.623 270.358 197.153 269.837 199.46 268.794C199.948 269.504 200.314 270.325 200.558 271.256C199.338 272.01 198.14 272.598 196.965 273.019C195.811 273.419 194.991 273.618 194.503 273.618C191.819 273.618 189.779 272.875 188.382 271.389C187.006 269.903 186.319 267.796 186.319 265.068C186.319 262.318 187.007 260.111 188.382 258.448C189.757 256.762 191.797 255.919 194.503 255.919C196.655 255.919 198.296 256.618 199.427 258.015C200.558 259.413 201.124 261.231 201.124 263.472C201.124 263.937 200.857 264.47 200.325 265.068L190.744 264.902C190.788 266.676 191.121 268.029 191.742 268.961C192.363 269.892 193.405 270.358 194.869 270.358ZM194.204 258.681C193.361 258.681 192.574 258.847 191.842 259.18C191.332 260.244 191.01 261.231 190.877 262.141C192.607 262.074 194.57 262.03 196.765 262.008C196.655 259.79 195.801 258.681 194.204 258.681Z" fill="url(#paint4_linear_2403_12365)"/>
<g filter="url(#filter2_d_2403_12365)">
<rect x="47.5577" y="321.602" width="179.114" height="25.5877" rx="2.55877" fill="#800080"/>
<path d="M108.195 338.875L108.195 337.88L111.678 337.88L111.678 330.915L108.195 330.915L108.196 329.92L111.678 329.92C111.952 329.92 112.186 330.017 112.381 330.212C112.576 330.407 112.673 330.641 112.673 330.915L112.673 337.88C112.673 338.154 112.576 338.388 112.381 338.583C112.186 338.778 111.952 338.875 111.678 338.875L108.195 338.875ZM107.2 336.885L106.516 336.164L107.785 334.895L103.718 334.895L103.718 333.9L107.785 333.9L106.516 332.631L107.2 331.91L109.688 334.398L107.2 336.885Z" fill="#FDE6EE"/>
<path d="M119.829 329.858L119.829 335.581C119.829 337.126 118.77 337.898 116.652 337.898L116.652 336.605C117.776 336.605 118.339 336.264 118.339 335.581L118.339 329.858L119.829 329.858ZM122.584 334.924C122.583 336.157 123.061 336.773 124.017 336.773C124.973 336.773 125.451 336.157 125.451 334.924C125.451 333.721 124.973 333.119 124.017 333.119C123.061 333.119 122.584 333.721 122.584 334.924ZM121.094 334.946C121.094 332.967 122.068 331.978 124.017 331.978C125.966 331.978 126.941 332.967 126.941 334.946C126.941 336.922 125.966 337.909 124.017 337.909C122.076 337.909 121.101 336.921 121.094 334.946ZM129.555 329.858L129.555 331.039L128.065 331.039L128.065 329.858L129.555 329.858ZM129.555 331.995L129.555 337.898L128.065 337.898L128.065 331.995L129.555 331.995ZM130.966 337.898L130.966 331.995L132.119 331.995L132.305 332.861C132.871 332.283 133.515 331.995 134.239 331.995C135.637 331.995 136.336 332.722 136.336 334.176L136.336 337.898L134.846 337.898L134.846 334.176C134.846 333.524 134.522 333.198 133.873 333.198C133.39 333.198 132.917 333.391 132.456 333.777L132.456 337.898L130.966 337.898ZM139.996 336.06C139.996 334.887 140.85 334.3 142.56 334.3C142.961 334.3 143.362 334.338 143.763 334.413L143.763 333.968C143.763 333.44 143.382 333.176 142.621 333.176C141.977 333.176 141.261 333.269 140.474 333.457L140.474 332.276C141.261 332.089 141.977 331.995 142.621 331.995C144.376 331.995 145.253 332.643 145.253 333.94L145.253 337.898L144.387 337.898L143.858 337.37C143.345 337.722 142.779 337.898 142.16 337.898C140.717 337.898 139.996 337.285 139.996 336.06ZM143.763 335.425C143.388 335.35 142.987 335.312 142.56 335.312C141.844 335.312 141.486 335.556 141.486 336.043C141.486 336.568 141.786 336.83 142.385 336.83C142.88 336.83 143.339 336.676 143.763 336.369L143.763 335.425ZM152.972 333.333C152.616 333.243 152.288 333.198 151.988 333.198C150.92 333.198 150.386 333.766 150.386 334.902C150.386 336.075 150.849 336.662 151.774 336.662C152.239 336.662 152.638 336.56 152.972 336.358L152.972 333.333ZM154.462 340.035L152.972 340.035L152.972 337.617C152.567 337.805 152.11 337.899 151.6 337.899C149.809 337.899 148.913 336.903 148.913 334.913C148.913 332.968 149.934 331.995 151.977 331.995C152.738 331.995 153.566 332.076 154.462 332.237L154.462 340.035ZM161.186 331.995L161.186 337.899L160.022 337.899L159.842 337.145C159.164 337.648 158.444 337.899 157.684 337.899C156.477 337.899 155.873 337.185 155.873 335.757L155.873 331.995L157.363 331.995L157.363 335.717C157.363 336.369 157.648 336.696 158.218 336.696C158.701 336.696 159.194 336.503 159.696 336.116L159.696 331.995L161.186 331.995ZM164.087 329.859L164.087 331.04L162.598 331.04L162.598 329.859L164.087 329.859ZM164.087 331.995L164.087 337.899L162.597 337.899L162.598 331.995L164.087 331.995ZM165.471 331.995L170.025 331.996L170.025 333.176L167.005 336.774L169.912 336.775L169.912 337.899L165.358 337.899L165.358 336.774L168.422 333.176L165.471 333.176L165.471 331.995Z" fill="#FFF3F7"/>
</g>
<g filter="url(#filter3_d_2403_12365)">
<rect x="47.5568" y="366.383" width="179.114" height="25.7939" rx="2.55877" fill="#FFF3F7"/>
<path d="M102.09 380.625C102.217 380.625 102.327 380.578 102.42 380.485C102.514 380.392 102.56 380.282 102.56 380.155C102.56 380.028 102.514 379.918 102.42 379.825C102.327 379.731 102.217 379.685 102.09 379.685C101.963 379.685 101.853 379.731 101.76 379.825C101.666 379.918 101.62 380.028 101.62 380.155C101.62 380.282 101.666 380.392 101.76 380.485C101.853 380.578 101.963 380.625 102.09 380.625ZM101.754 379.192L102.426 379.192C102.426 378.976 102.448 378.817 102.493 378.716C102.538 378.615 102.642 378.483 102.806 378.319C103.03 378.095 103.18 377.914 103.254 377.776C103.329 377.638 103.366 377.476 103.366 377.289C103.366 376.953 103.249 376.679 103.014 376.466C102.779 376.253 102.471 376.147 102.09 376.147C101.784 376.147 101.517 376.233 101.29 376.405C101.062 376.576 100.903 376.804 100.814 377.087L101.418 377.334C101.486 377.147 101.577 377.007 101.693 376.914C101.808 376.821 101.941 376.774 102.09 376.774C102.269 376.774 102.415 376.824 102.527 376.925C102.639 377.026 102.695 377.162 102.695 377.334C102.695 377.438 102.665 377.537 102.605 377.63C102.545 377.724 102.441 377.841 102.292 377.983C102.045 378.199 101.894 378.369 101.838 378.492C101.782 378.615 101.754 378.849 101.754 379.192ZM99.4032 381.968C99.1569 381.968 98.9461 381.881 98.7707 381.705C98.5954 381.53 98.5077 381.319 98.5077 381.073L98.5078 375.699C98.5078 375.453 98.5955 375.242 98.7709 375.067C98.9463 374.891 99.1571 374.804 99.4034 374.804L104.777 374.804C105.023 374.804 105.234 374.891 105.409 375.067C105.585 375.242 105.672 375.453 105.672 375.699L105.672 381.073C105.672 381.319 105.585 381.53 105.409 381.705C105.234 381.881 105.023 381.968 104.777 381.968L99.4032 381.968ZM97.612 383.759C97.3658 383.759 97.1549 383.672 96.9795 383.496C96.8042 383.321 96.7165 383.11 96.7165 382.864L96.7166 376.595L97.6122 376.595L97.6121 382.864L103.881 382.864L103.881 383.759L97.612 383.759Z" fill="#450027"/>
<path d="M116.763 382.445C116.07 382.707 115.283 382.838 114.402 382.838C111.516 382.838 110.073 381.442 110.073 378.649C110.073 376.007 111.516 374.686 114.402 374.686C115.283 374.686 116.07 374.817 116.763 375.079L116.763 376.429C116.07 376.129 115.32 375.979 114.514 375.979C112.584 375.979 111.619 376.869 111.619 378.649C111.619 380.58 112.584 381.545 114.514 381.545C115.32 381.545 116.07 381.395 116.763 381.095L116.763 382.445ZM118.028 382.782L118.028 376.879L119.181 376.879L119.366 377.632C119.884 377.13 120.431 376.879 121.008 376.879L121.008 378.082C120.453 378.082 119.957 378.312 119.518 378.773L119.518 382.782L118.028 382.782ZM124.342 376.879C126.134 376.879 127.03 377.793 127.03 379.622C127.03 379.866 127.013 380.11 126.979 380.353L123.06 380.353C123.06 381.185 123.671 381.601 124.893 381.601C125.489 381.601 126.085 381.545 126.681 381.433L126.681 382.613C126.16 382.726 125.526 382.782 124.781 382.782C122.64 382.782 121.57 381.776 121.57 379.763C121.57 377.84 122.494 376.879 124.342 376.879ZM123.06 379.319L125.579 379.319L125.579 379.274C125.579 378.457 125.167 378.048 124.342 378.048C123.555 378.048 123.128 378.472 123.06 379.319ZM127.867 380.944C127.867 379.77 128.722 379.184 130.431 379.184C130.832 379.184 131.233 379.221 131.634 379.296L131.634 378.852C131.634 378.324 131.254 378.06 130.493 378.059C129.848 378.059 129.132 378.153 128.345 378.341L128.345 377.16C129.132 376.972 129.848 376.879 130.493 376.879C132.247 376.879 133.124 377.527 133.124 378.824L133.124 382.782L132.258 382.782L131.73 382.254C131.216 382.606 130.65 382.782 130.032 382.782C128.589 382.782 127.867 382.169 127.867 380.944ZM131.634 380.308C131.259 380.233 130.858 380.196 130.431 380.196C129.715 380.196 129.357 380.44 129.357 380.927C129.357 381.452 129.657 381.714 130.257 381.714C130.751 381.714 131.211 381.56 131.634 381.253L131.634 380.308ZM134.451 375.923L135.553 375.923L135.778 376.879L137.262 376.879L137.262 378.06L135.941 378.06L135.941 380.775C135.941 381.326 136.179 381.602 136.655 381.602L137.262 381.602L137.262 382.782L135.935 382.782C134.946 382.782 134.451 382.252 134.451 381.191L134.451 375.923ZM140.771 376.879C142.562 376.879 143.458 377.794 143.458 379.623C143.458 379.866 143.441 380.11 143.407 380.354L139.489 380.354C139.489 381.186 140.1 381.602 141.321 381.602C141.917 381.602 142.513 381.546 143.109 381.433L143.109 382.614C142.588 382.726 141.955 382.783 141.209 382.782C139.069 382.782 137.999 381.776 137.999 379.763C137.999 377.84 138.923 376.879 140.771 376.879ZM139.489 379.319L142.007 379.319L142.007 379.274C142.007 378.457 141.595 378.049 140.771 378.048C139.983 378.048 139.556 378.472 139.489 379.319ZM146.826 380.944C146.826 379.771 147.68 379.184 149.389 379.184C149.791 379.184 150.192 379.222 150.593 379.297L150.593 378.853C150.593 378.324 150.212 378.06 149.451 378.06C148.807 378.06 148.091 378.154 147.304 378.341L147.304 377.16C148.091 376.973 148.807 376.879 149.451 376.879C151.206 376.879 152.083 377.528 152.083 378.825L152.082 382.783L151.217 382.783L150.688 382.254C150.175 382.607 149.609 382.783 148.99 382.783C147.547 382.783 146.826 382.17 146.826 380.944ZM150.593 380.309C150.218 380.234 149.817 380.196 149.389 380.196C148.674 380.196 148.316 380.44 148.316 380.927C148.316 381.452 148.615 381.714 149.215 381.714C149.71 381.714 150.169 381.561 150.593 381.253L150.593 380.309ZM159.802 378.218C159.446 378.128 159.118 378.083 158.818 378.083C157.75 378.083 157.216 378.65 157.216 379.786C157.216 380.959 157.679 381.546 158.604 381.546C159.069 381.546 159.468 381.445 159.802 381.242L159.802 378.218ZM161.292 384.919L159.802 384.919L159.802 382.502C159.397 382.689 158.94 382.783 158.43 382.783C156.638 382.783 155.743 381.788 155.743 379.797C155.743 377.852 156.764 376.879 158.807 376.879C159.568 376.879 160.396 376.96 161.292 377.121L161.292 384.919ZM168.016 376.88L168.016 382.783L166.852 382.783L166.672 382.03C165.994 382.532 165.274 382.783 164.513 382.783C163.306 382.783 162.703 382.069 162.703 380.641L162.703 376.88L164.193 376.88L164.193 380.602C164.193 381.254 164.478 381.58 165.048 381.58C165.531 381.58 166.024 381.387 166.526 381.001L166.526 376.88L168.016 376.88ZM170.917 374.743L170.917 375.924L169.427 375.924L169.427 374.743L170.917 374.743ZM170.917 376.88L170.917 382.783L169.427 382.783L169.427 376.88L170.917 376.88ZM172.3 376.88L176.855 376.88L176.854 378.061L173.835 381.659L176.742 381.659L176.742 382.783L172.188 382.783L172.188 381.659L175.252 378.061L172.3 378.06L172.3 376.88Z" fill="#450027"/>
</g>
<path d="M113.245 419.111L114.141 419.111L114.141 416.424L113.245 416.424L113.245 419.111ZM113.693 415.529C113.82 415.529 113.927 415.486 114.012 415.4C114.098 415.314 114.141 415.208 114.141 415.081C114.141 414.954 114.098 414.847 114.012 414.762C113.927 414.676 113.82 414.633 113.693 414.633C113.566 414.633 113.46 414.676 113.374 414.762C113.288 414.847 113.246 414.954 113.246 415.081C113.246 415.208 113.288 415.314 113.374 415.4C113.46 415.486 113.566 415.529 113.693 415.529ZM113.693 421.351C113.074 421.351 112.491 421.233 111.947 420.998C111.402 420.763 110.928 420.444 110.525 420.041C110.122 419.637 109.803 419.163 109.568 418.619C109.332 418.074 109.215 417.492 109.215 416.872C109.215 416.252 109.332 415.67 109.568 415.125C109.803 414.581 110.122 414.107 110.525 413.704C110.928 413.3 111.402 412.981 111.947 412.746C112.492 412.511 113.074 412.394 113.693 412.394C114.313 412.394 114.895 412.511 115.44 412.746C115.985 412.982 116.459 413.301 116.862 413.704C117.265 414.107 117.584 414.581 117.819 415.126C118.054 415.67 118.172 416.253 118.172 416.872C118.172 417.492 118.054 418.074 117.819 418.619C117.584 419.164 117.265 419.638 116.862 420.041C116.459 420.444 115.985 420.763 115.44 420.998C114.895 421.233 114.313 421.351 113.693 421.351Z" fill="#FFF3F7"/>
<path d="M123.095 420.372L122.135 420.372L125.169 413.225L126.194 413.225L129.243 420.373L128.218 420.373L127.293 418.123L124.929 418.123L125.184 417.373L126.984 417.374L125.649 414.135L123.095 420.372ZM131.042 419.458C131.345 419.555 131.713 419.603 132.147 419.603C133.313 419.603 133.896 418.938 133.896 417.609C133.896 416.486 133.368 415.924 132.312 415.924C131.832 415.924 131.409 416.014 131.042 416.194L131.042 419.458ZM130.118 413.225L131.042 413.225L131.042 415.374C131.439 415.208 131.864 415.124 132.317 415.124C133.976 415.124 134.806 415.964 134.806 417.644C134.806 419.463 133.934 420.373 132.192 420.373C131.439 420.373 130.747 420.301 130.117 420.158L130.118 413.225ZM136.73 417.729C136.73 418.992 137.255 419.623 138.305 419.623C139.354 419.623 139.879 418.992 139.879 417.729C139.879 416.492 139.354 415.874 138.305 415.874C137.255 415.874 136.73 416.492 136.73 417.729ZM135.805 417.749C135.805 415.999 136.639 415.125 138.305 415.125C139.971 415.125 140.804 415.999 140.804 417.749C140.804 419.495 139.971 420.368 138.305 420.368C136.645 420.368 135.812 419.495 135.805 417.749ZM146.577 415.125L146.577 420.373L145.942 420.373L145.782 419.703C145.145 420.15 144.506 420.373 143.863 420.373C142.656 420.373 142.053 419.721 142.053 418.419L142.053 415.125L142.978 415.125L142.978 418.434C142.978 419.213 143.364 419.603 144.138 419.603C144.667 419.603 145.172 419.382 145.652 418.938L145.652 415.125L146.577 415.125ZM148.081 414.275L148.661 414.275L148.861 415.125L150.28 415.125L150.28 415.875L149.006 415.875L149.006 418.889C149.006 419.378 149.217 419.623 149.641 419.623L150.28 419.623L150.28 420.373L149.401 420.373C148.521 420.373 148.081 419.901 148.081 418.958L148.081 414.275ZM158.483 415.125L158.483 420.373L157.848 420.373L157.688 419.703C157.051 420.15 156.412 420.373 155.768 420.373C154.562 420.373 153.959 419.722 153.959 418.419L153.959 415.125L154.884 415.125L154.884 418.434C154.884 419.214 155.27 419.603 156.043 419.603C156.573 419.603 157.078 419.382 157.558 418.939L157.558 415.125L158.483 415.125ZM159.937 420.123L159.937 419.324C160.553 419.524 161.177 419.624 161.806 419.624C162.643 419.624 163.061 419.374 163.061 418.874C163.061 418.407 162.769 418.174 162.186 418.174L161.437 418.174C160.304 418.174 159.737 417.658 159.737 416.625C159.737 415.625 160.465 415.125 161.921 415.125C162.548 415.125 163.169 415.208 163.786 415.375L163.786 416.175C163.169 415.975 162.548 415.875 161.921 415.875C161.048 415.875 160.612 416.125 160.612 416.625C160.612 417.091 160.887 417.324 161.437 417.324L162.186 417.324C163.386 417.324 163.986 417.841 163.986 418.874C163.986 419.874 163.259 420.373 161.806 420.373C161.177 420.373 160.553 420.29 159.937 420.123Z" fill="white"/>
</g>
</g>
</g>
<path d="M162.117 15.9786L110.939 15.9786C105.043 15.9786 100.262 20.759 100.262 26.656C100.262 32.5529 105.043 37.3333 110.939 37.3333H162.117C168.014 37.3333 172.794 32.5529 172.794 26.656C172.794 20.759 168.014 15.9786 162.117 15.9786Z" fill="black"/>
<path d="M161.834 32.5552C165.092 32.5552 167.733 29.914 167.733 26.6558C167.733 23.3977 165.092 20.7565 161.834 20.7565C158.576 20.7565 155.934 23.3977 155.934 26.6558C155.934 29.914 158.576 32.5552 161.834 32.5552Z" fill="#0A0A0A"/>
<path d="M161.834 30.2935C163.843 30.2935 165.471 28.6649 165.471 26.6558C165.471 24.6468 163.843 23.0182 161.834 23.0182C159.825 23.0182 158.196 24.6468 158.196 26.6558C158.196 28.6649 159.825 30.2935 161.834 30.2935Z" fill="#0C0E11"/>
<path d="M161.834 29.4302C163.366 29.4302 164.608 28.1881 164.608 26.6558C164.608 25.1236 163.366 23.8815 161.834 23.8815C160.301 23.8815 159.059 25.1236 159.059 26.6558C159.059 28.1881 160.301 29.4302 161.834 29.4302Z" fill="#12171E"/>
<g filter="url(#filter4_f_2403_12365)">
<path fill-rule="evenodd" clip-rule="evenodd" d="M159.927 24.7986C159.596 24.8324 159.13 25.3391 159.096 26.322C159.062 27.3083 159.491 27.8453 159.738 27.8453C159.974 27.8453 160.981 26.4098 159.927 24.7986Z" fill="#425A72" fill-opacity="0.299338"/>
</g>
<g filter="url(#filter5_f_2403_12365)">
<path fill-rule="evenodd" clip-rule="evenodd" d="M162.284 24.4541C161.768 24.6128 161.67 25.4505 161.687 25.9302C161.707 26.4098 162.386 27.6663 163.207 27.3859C164.021 27.1056 164.162 26.0686 163.821 25.3728C163.484 24.6736 162.862 24.1737 162.284 24.4541Z" fill="#425A72" fill-opacity="0.299338"/>
</g>
<path d="M108.496 3.73528C111.369 3.73528 111.293 4.42073 111.889 5.19583C112.321 5.76265 112.88 5.94456 113.979 5.94456L159.072 5.94456C160.171 5.94456 160.728 5.76265 161.16 5.19583C161.756 4.42073 161.682 3.73528 164.553 3.73528L108.496 3.73528Z" fill="url(#paint5_linear_2403_12365)"/>
</g>
<defs>
<filter id="filter0_f_2403_12365" x="2.48261" y="0.754865" width="268.083" height="558.254" filterUnits="userSpaceOnUse" color-interpolation-filters="sRGB">
<feFlood flood-opacity="0" result="BackgroundImageFix"/>
<feBlend mode="normal" in="SourceGraphic" in2="BackgroundImageFix" result="shape"/>
<feGaussianBlur stdDeviation="0.668973" result="effect1_foregroundBlur_2403_12365"/>
</filter>
<filter id="filter1_b_2403_12365" x="-1.40262" y="-7.56114" width="277.037" height="570.688" filterUnits="userSpaceOnUse" color-interpolation-filters="sRGB">
<feFlood flood-opacity="0" result="BackgroundImageFix"/>
<feGaussianBlur in="BackgroundImageFix" stdDeviation="6.39778"/>
<feComposite in2="SourceAlpha" operator="in" result="effect1_backgroundBlur_2403_12365"/>
<feBlend mode="normal" in="SourceGraphic" in2="effect1_backgroundBlur_2403_12365" result="shape"/>
</filter>
<filter id="filter2_d_2403_12365" x="47.5571" y="321.602" width="179.115" height="28.1507" filterUnits="userSpaceOnUse" color-interpolation-filters="sRGB">
<feFlood flood-opacity="0" result="BackgroundImageFix"/>
<feColorMatrix in="SourceAlpha" type="matrix" values="0 0 0 0 0 0 0 0 0 0 0 0 0 0 0 0 0 0 127 0" result="hardAlpha"/>
<feOffset dy="2.55877"/>
<feComposite in2="hardAlpha" operator="out"/>
<feColorMatrix type="matrix" values="0 0 0 0 0.379167 0 0 0 0 0 0 0 0 0 0.379167 0 0 0 1 0"/>
<feBlend mode="normal" in2="BackgroundImageFix" result="effect1_dropShadow_2403_12365"/>
<feBlend mode="normal" in="SourceGraphic" in2="effect1_dropShadow_2403_12365" result="shape"/>
</filter>
<filter id="filter3_d_2403_12365" x="47.5562" y="366.383" width="179.115" height="28.3568" filterUnits="userSpaceOnUse" color-interpolation-filters="sRGB">
<feFlood flood-opacity="0" result="BackgroundImageFix"/>
<feColorMatrix in="SourceAlpha" type="matrix" values="0 0 0 0 0 0 0 0 0 0 0 0 0 0 0 0 0 0 127 0" result="hardAlpha"/>
<feOffset dy="2.55877"/>
<feComposite in2="hardAlpha" operator="out"/>
<feColorMatrix type="matrix" values="0 0 0 0 0.8125 0 0 0 0 0.754948 0 0 0 0 0.77526 0 0 0 1 0"/>
<feBlend mode="normal" in2="BackgroundImageFix" result="effect1_dropShadow_2403_12365"/>
<feBlend mode="normal" in="SourceGraphic" in2="effect1_dropShadow_2403_12365" result="shape"/>
</filter>
<filter id="filter4_f_2403_12365" x="158.794" y="24.4984" width="1.90513" height="3.64713" filterUnits="userSpaceOnUse" color-interpolation-filters="sRGB">
<feFlood flood-opacity="0" result="BackgroundImageFix"/>
<feBlend mode="normal" in="SourceGraphic" in2="BackgroundImageFix" result="shape"/>
<feGaussianBlur stdDeviation="0.150111" result="effect1_foregroundBlur_2403_12365"/>
</filter>
<filter id="filter5_f_2403_12365" x="161.385" y="24.0746" width="2.91001" height="3.65193" filterUnits="userSpaceOnUse" color-interpolation-filters="sRGB">
<feFlood flood-opacity="0" result="BackgroundImageFix"/>
<feBlend mode="normal" in="SourceGraphic" in2="BackgroundImageFix" result="shape"/>
<feGaussianBlur stdDeviation="0.150111" result="effect1_foregroundBlur_2403_12365"/>
</filter>
<linearGradient id="paint0_linear_2403_12365" x1="272.035" y1="166.07" x2="272.035" y2="226.275" gradientUnits="userSpaceOnUse">
<stop stop-color="#DAD5C5"/>
<stop offset="0.124" stop-color="#BCB6A8"/>
<stop offset="0.765" stop-color="#9B9388"/>
<stop offset="0.985" stop-color="#80786E"/>
<stop offset="1" stop-color="#B9B3A5"/>
</linearGradient>
<linearGradient id="paint1_linear_2403_12365" x1="28.9349" y1="140.281" x2="28.9349" y2="176.31" gradientUnits="userSpaceOnUse">
<stop stop-color="#DAD5C5"/>
<stop offset="0.124" stop-color="#BCB6A8"/>
<stop offset="0.765" stop-color="#9B9388"/>
<stop offset="0.985" stop-color="#80786E"/>
<stop offset="1" stop-color="#B9B3A5"/>
</linearGradient>
<linearGradient id="paint2_linear_2403_12365" x1="28.9349" y1="100.881" x2="28.9349" y2="122.053" gradientUnits="userSpaceOnUse">
<stop stop-color="#DAD5C5"/>
<stop offset="0.124" stop-color="#BCB6A8"/>
<stop offset="0.765" stop-color="#9B9388"/>
<stop offset="0.985" stop-color="#80786E"/>
<stop offset="1" stop-color="#B9B3A5"/>
</linearGradient>
<linearGradient id="paint3_linear_2403_12365" x1="28.9349" y1="189.814" x2="28.9349" y2="225.842" gradientUnits="userSpaceOnUse">
<stop stop-color="#DAD5C5"/>
<stop offset="0.124" stop-color="#BCB6A8"/>
<stop offset="0.765" stop-color="#9B9388"/>
<stop offset="0.985" stop-color="#80786E"/>
<stop offset="1" stop-color="#B9B3A5"/>
</linearGradient>
<linearGradient id="paint4_linear_2403_12365" x1="137.117" y1="240.218" x2="137.116" y2="283.218" gradientUnits="userSpaceOnUse">
<stop offset="0.45" stop-color="#FDE6EE"/>
<stop offset="1" stop-color="#FF9DFF"/>
</linearGradient>
<linearGradient id="paint5_linear_2403_12365" x1="114.02" y1="3.73437" x2="114.02" y2="5.94267" gradientUnits="userSpaceOnUse">
<stop/>
<stop offset="1" stop-color="#212121"/>
</linearGradient>
<clipPath id="clip0_2403_12365">
<rect width="272.043" height="559.432" fill="white" transform="translate(0.50415 0.167122)"/>
</clipPath>
<clipPath id="clip1_2403_12365">
<rect x="11.7008" y="10.2207" width="249.647" height="539.322" rx="33" fill="white"/>
</clipPath>
<clipPath id="clip2_2403_12365">
<rect width="251.433" height="545.092" fill="white" transform="translate(11.4056 5.23418)"/>
</clipPath>
</defs>
</svg>
